<svg xmlns="http://www.w3.org/2000/svg" xmlns:xlink="http://www.w3.org/1999/xlink" version="1.1" x="0" y="0" viewBox="0 0 792 261.3" enable-background="new 0 0 792 261.3" xml:space="preserve">
  <g id="Static">
    <polyline fill="none" stroke="#7F0018" points="16.7 104.2 16.7 105.2 17.7 105.2 "/>
    <line fill="none" stroke="#7F0018" stroke-dasharray="1.99" x1="19.7" y1="105.2" x2="772.7" y2="105.2"/>
    <polyline fill="none" stroke="#7F0018" points="773.7 105.2 774.7 105.2 774.7 104.2 "/>
    <line fill="none" stroke="#7F0018" stroke-dasharray="1.95" x1="774.7" y1="102.2" x2="774.7" y2="21.1"/>
    <polyline fill="none" stroke="#7F0018" points="774.7 20.1 774.7 19.1 773.7 19.1 "/>
    <line fill="none" stroke="#7F0018" stroke-dasharray="1.99" x1="771.7" y1="19.1" x2="18.7" y2="19.1"/>
    <polyline fill="none" stroke="#7F0018" points="17.7 19.1 16.7 19.1 16.7 20.1 "/>
    <line fill="none" stroke="#7F0018" stroke-dasharray="1.95" x1="16.7" y1="22.1" x2="16.7" y2="103.2"/>
    <rect x="16.7" y="20.7" fill="none" width="758" height="84.5"/>
    <text transform="matrix(1 0 0 1 666.0166 29.1895)" font-family="'MyriadPro-Regular'" font-size="12">
      Mitochondrial Matrix
    </text>
    <rect x="16.7" y="20.7" fill="none" width="758" height="84.5"/>
    <text transform="matrix(1 0 0 1 666.0166 29.1895)" fill="#7F0018" font-family="'MyriadPro-Regular'" font-size="12">
      Mitochondrial Matrix
    </text>
    <polyline fill="none" stroke="#005894" points="16.7 244.3 16.7 245.3 17.7 245.3 "/>
    <line fill="none" stroke="#005894" stroke-dasharray="1.99" x1="19.7" y1="245.3" x2="772.7" y2="245.3"/>
    <polyline fill="none" stroke="#005894" points="773.7 245.3 774.7 245.3 774.7 244.3 "/>
    <line fill="none" stroke="#005894" stroke-dasharray="1.98" x1="774.7" y1="242.4" x2="774.7" y2="112.6"/>
    <polyline fill="none" stroke="#005894" points="774.7 111.6 774.7 110.6 773.7 110.6 "/>
    <line fill="none" stroke="#005894" stroke-dasharray="1.99" x1="771.7" y1="110.6" x2="18.7" y2="110.6"/>
    <polyline fill="none" stroke="#005894" points="17.7 110.6 16.7 110.6 16.7 111.6 "/>
    <line fill="none" stroke="#005894" stroke-dasharray="1.98" x1="16.7" y1="113.5" x2="16.7" y2="243.3"/>
    <path d="M661.5 235.5v8.1h-1v-8.1H661.5z"/>
    <path d="M663.3 239.4c0-0.6 0-1.1 0-1.6h0.9l0.1 1h0c0.3-0.6 1-1.1 1.9-1.1 0.8 0 2.1 0.5 2.1 2.5v3.5h-1.1v-3.3c0-0.9-0.3-1.7-1.3-1.7 -0.7 0-1.2 0.5-1.4 1.1 0 0.1-0.1 0.3-0.1 0.5v3.5h-1.1V239.4z"/>
    <path d="M671.2 236.1v1.7h1.5v0.8h-1.5v3.1c0 0.7 0.2 1.1 0.8 1.1 0.3 0 0.5 0 0.6-0.1l0 0.8c-0.2 0.1-0.5 0.1-0.9 0.1 -0.5 0-0.9-0.2-1.1-0.4 -0.3-0.3-0.4-0.8-0.4-1.5v-3.2h-0.9v-0.8h0.9v-1.4L671.2 236.1z"/>
    <path d="M674.5 240.9c0 1.4 0.9 2 2 2 0.8 0 1.2-0.1 1.6-0.3l0.2 0.8c-0.4 0.2-1 0.4-1.9 0.4 -1.8 0-2.9-1.2-2.9-2.9s1-3.1 2.7-3.1c1.9 0 2.4 1.7 2.4 2.7 0 0.2 0 0.4 0 0.5H674.5zM677.6 240.1c0-0.7-0.3-1.7-1.5-1.7 -1.1 0-1.5 1-1.6 1.7H677.6z"/>
    <path d="M679.9 239.6c0-0.7 0-1.3 0-1.8h0.9l0 1.1h0c0.3-0.8 0.9-1.3 1.6-1.3 0.1 0 0.2 0 0.3 0v1c-0.1 0-0.2 0-0.4 0 -0.7 0-1.3 0.6-1.4 1.4 0 0.1 0 0.3 0 0.5v3.1h-1V239.6z"/>
    <path d="M683.8 239.4c0-0.6 0-1.1 0-1.6h0.9l0 0.9h0c0.3-0.6 0.9-1.1 1.8-1.1 0.8 0 1.4 0.5 1.6 1.2h0c0.2-0.3 0.4-0.6 0.6-0.8 0.3-0.3 0.7-0.4 1.3-0.4 0.8 0 1.9 0.5 1.9 2.5v3.4h-1v-3.3c0-1.1-0.4-1.8-1.3-1.8 -0.6 0-1.1 0.4-1.2 1 0 0.1-0.1 0.3-0.1 0.5v3.6h-1v-3.5c0-0.9-0.4-1.6-1.2-1.6 -0.7 0-1.1 0.5-1.3 1.1 -0.1 0.2-0.1 0.3-0.1 0.5v3.5h-1V239.4z"/>
    <path d="M694.4 240.9c0 1.4 0.9 2 2 2 0.8 0 1.2-0.1 1.6-0.3l0.2 0.8c-0.4 0.2-1 0.4-1.9 0.4 -1.8 0-2.9-1.2-2.9-2.9s1-3.1 2.7-3.1c1.9 0 2.4 1.7 2.4 2.7 0 0.2 0 0.4 0 0.5H694.4zM697.5 240.1c0-0.7-0.3-1.7-1.5-1.7 -1.1 0-1.5 1-1.6 1.7H697.5z"/>
    <path d="M699.9 239.4c0-0.6 0-1.1 0-1.6h0.9l0 0.9h0c0.3-0.6 0.9-1.1 1.8-1.1 0.8 0 1.4 0.5 1.6 1.2h0c0.2-0.3 0.4-0.6 0.6-0.8 0.3-0.3 0.7-0.4 1.3-0.4 0.8 0 1.9 0.5 1.9 2.5v3.4h-1v-3.3c0-1.1-0.4-1.8-1.3-1.8 -0.6 0-1.1 0.4-1.2 1 0 0.1-0.1 0.3-0.1 0.5v3.6h-1v-3.5c0-0.9-0.4-1.6-1.2-1.6 -0.7 0-1.1 0.5-1.3 1.1 -0.1 0.2-0.1 0.3-0.1 0.5v3.5h-1V239.4z"/>
    <path d="M709.8 243.6c0-0.4 0-1 0-1.5v-7h1v3.6h0c0.4-0.6 1-1.1 2-1.1 1.4 0 2.5 1.2 2.4 3 0 2.1-1.3 3.1-2.6 3.1 -0.8 0-1.5-0.3-1.9-1.1h0l0 1H709.8zM710.9 241.3c0 0.1 0 0.3 0 0.4 0.2 0.7 0.8 1.2 1.6 1.2 1.1 0 1.8-0.9 1.8-2.2 0-1.2-0.6-2.2-1.7-2.2 -0.7 0-1.4 0.5-1.6 1.3 0 0.1-0.1 0.3-0.1 0.4V241.3z"/>
    <path d="M716.7 239.6c0-0.7 0-1.3 0-1.8h0.9l0 1.1h0c0.3-0.8 0.9-1.3 1.6-1.3 0.1 0 0.2 0 0.3 0v1c-0.1 0-0.2 0-0.4 0 -0.7 0-1.3 0.6-1.4 1.4 0 0.1 0 0.3 0 0.5v3.1h-1V239.6z"/>
    <path d="M723.8 243.6l-0.1-0.7h0c-0.3 0.5-0.9 0.9-1.8 0.9 -1.2 0-1.8-0.8-1.8-1.7 0-1.4 1.2-2.2 3.5-2.2v-0.1c0-0.5-0.1-1.3-1.3-1.3 -0.5 0-1.1 0.2-1.5 0.4l-0.2-0.7c0.5-0.3 1.2-0.5 1.9-0.5 1.8 0 2.2 1.2 2.2 2.4v2.2c0 0.5 0 1 0.1 1.4H723.8zM723.7 240.6c-1.2 0-2.5 0.2-2.5 1.3 0 0.7 0.5 1 1 1 0.8 0 1.2-0.5 1.4-1 0-0.1 0.1-0.2 0.1-0.3V240.6z"/>
    <path d="M726.4 239.4c0-0.6 0-1.1 0-1.6h0.9l0.1 1h0c0.3-0.6 1-1.1 1.9-1.1 0.8 0 2.1 0.5 2.1 2.5v3.5h-1.1v-3.3c0-0.9-0.3-1.7-1.3-1.7 -0.7 0-1.2 0.5-1.4 1.1 0 0.1-0.1 0.3-0.1 0.5v3.5h-1.1V239.4z"/>
    <path d="M733.7 240.9c0 1.4 0.9 2 2 2 0.8 0 1.2-0.1 1.6-0.3l0.2 0.8c-0.4 0.2-1 0.4-1.9 0.4 -1.8 0-2.9-1.2-2.9-2.9s1-3.1 2.7-3.1c1.9 0 2.4 1.7 2.4 2.7 0 0.2 0 0.4 0 0.5H733.7zM736.8 240.1c0-0.7-0.3-1.7-1.5-1.7 -1.1 0-1.5 1-1.6 1.7H736.8z"/>
    <path d="M741.5 242.3c0.5 0.3 1.2 0.5 1.9 0.5 1.1 0 1.7-0.6 1.7-1.4 0-0.8-0.4-1.2-1.5-1.6 -1.3-0.5-2.1-1.2-2.1-2.3 0-1.3 1-2.2 2.6-2.2 0.8 0 1.4 0.2 1.8 0.4l-0.3 0.9c-0.3-0.1-0.8-0.4-1.5-0.4 -1.1 0-1.5 0.7-1.5 1.2 0 0.8 0.5 1.1 1.6 1.6 1.4 0.5 2.1 1.2 2.1 2.4 0 1.2-0.9 2.3-2.8 2.3 -0.8 0-1.6-0.2-2.1-0.5L741.5 242.3z"/>
    <path d="M747.5 239.7c0-0.7 0-1.3 0-1.9h0.9l0 1h0c0.4-0.7 1.1-1.1 2.1-1.1 1.4 0 2.5 1.2 2.5 3 0 2.1-1.3 3.1-2.6 3.1 -0.8 0-1.4-0.3-1.8-0.9h0v3.2h-1V239.7zM748.6 241.2c0 0.2 0 0.3 0 0.4 0.2 0.7 0.8 1.2 1.6 1.2 1.1 0 1.8-0.9 1.8-2.2 0-1.2-0.6-2.2-1.7-2.2 -0.7 0-1.4 0.5-1.6 1.3 0 0.1-0.1 0.3-0.1 0.4V241.2z"/>
    <path d="M757.6 243.6l-0.1-0.7h0c-0.3 0.5-0.9 0.9-1.8 0.9 -1.2 0-1.8-0.8-1.8-1.7 0-1.4 1.2-2.2 3.5-2.2v-0.1c0-0.5-0.1-1.3-1.3-1.3 -0.5 0-1.1 0.2-1.5 0.4l-0.2-0.7c0.5-0.3 1.2-0.5 1.9-0.5 1.8 0 2.2 1.2 2.2 2.4v2.2c0 0.5 0 1 0.1 1.4H757.6zM757.4 240.6c-1.2 0-2.5 0.2-2.5 1.3 0 0.7 0.5 1 1 1 0.8 0 1.2-0.5 1.4-1 0-0.1 0.1-0.2 0.1-0.3V240.6z"/>
    <path d="M764.3 243.4c-0.3 0.1-0.9 0.3-1.7 0.3 -1.8 0-2.9-1.2-2.9-3 0-1.8 1.2-3.1 3.1-3.1 0.6 0 1.2 0.2 1.5 0.3l-0.2 0.8c-0.3-0.1-0.6-0.3-1.2-0.3 -1.3 0-2.1 1-2.1 2.2 0 1.3 0.9 2.2 2 2.2 0.6 0 1-0.2 1.3-0.3L764.3 243.4z"/>
    <path d="M766.1 240.9c0 1.4 0.9 2 2 2 0.8 0 1.2-0.1 1.6-0.3l0.2 0.8c-0.4 0.2-1 0.4-1.9 0.4 -1.8 0-2.9-1.2-2.9-2.9s1-3.1 2.7-3.1c1.9 0 2.4 1.7 2.4 2.7 0 0.2 0 0.4 0 0.5H766.1zM769.2 240.1c0-0.7-0.3-1.7-1.5-1.7 -1.1 0-1.5 1-1.6 1.7H769.2z"/>
    <path fill="#005894" d="M661.5 235.5v8.1h-1v-8.1H661.5z"/>
    <path fill="#005894" d="M663.3 239.4c0-0.6 0-1.1 0-1.6h0.9l0.1 1h0c0.3-0.6 1-1.1 1.9-1.1 0.8 0 2.1 0.5 2.1 2.5v3.5h-1.1v-3.3c0-0.9-0.3-1.7-1.3-1.7 -0.7 0-1.2 0.5-1.4 1.1 0 0.1-0.1 0.3-0.1 0.5v3.5h-1.1V239.4z"/>
    <path fill="#005894" d="M671.2 236.1v1.7h1.5v0.8h-1.5v3.1c0 0.7 0.2 1.1 0.8 1.1 0.3 0 0.5 0 0.6-0.1l0 0.8c-0.2 0.1-0.5 0.1-0.9 0.1 -0.5 0-0.9-0.2-1.1-0.4 -0.3-0.3-0.4-0.8-0.4-1.5v-3.2h-0.9v-0.8h0.9v-1.4L671.2 236.1z"/>
    <path fill="#005894" d="M674.5 240.9c0 1.4 0.9 2 2 2 0.8 0 1.2-0.1 1.6-0.3l0.2 0.8c-0.4 0.2-1 0.4-1.9 0.4 -1.8 0-2.9-1.2-2.9-2.9s1-3.1 2.7-3.1c1.9 0 2.4 1.7 2.4 2.7 0 0.2 0 0.4 0 0.5H674.5zM677.6 240.1c0-0.7-0.3-1.7-1.5-1.7 -1.1 0-1.5 1-1.6 1.7H677.6z"/>
    <path fill="#005894" d="M679.9 239.6c0-0.7 0-1.3 0-1.8h0.9l0 1.1h0c0.3-0.8 0.9-1.3 1.6-1.3 0.1 0 0.2 0 0.3 0v1c-0.1 0-0.2 0-0.4 0 -0.7 0-1.3 0.6-1.4 1.4 0 0.1 0 0.3 0 0.5v3.1h-1V239.6z"/>
    <path fill="#005894" d="M683.8 239.4c0-0.6 0-1.1 0-1.6h0.9l0 0.9h0c0.3-0.6 0.9-1.1 1.8-1.1 0.8 0 1.4 0.5 1.6 1.2h0c0.2-0.3 0.4-0.6 0.6-0.8 0.3-0.3 0.7-0.4 1.3-0.4 0.8 0 1.9 0.5 1.9 2.5v3.4h-1v-3.3c0-1.1-0.4-1.8-1.3-1.8 -0.6 0-1.1 0.4-1.2 1 0 0.1-0.1 0.3-0.1 0.5v3.6h-1v-3.5c0-0.9-0.4-1.6-1.2-1.6 -0.7 0-1.1 0.5-1.3 1.1 -0.1 0.2-0.1 0.3-0.1 0.5v3.5h-1V239.4z"/>
    <path fill="#005894" d="M694.4 240.9c0 1.4 0.9 2 2 2 0.8 0 1.2-0.1 1.6-0.3l0.2 0.8c-0.4 0.2-1 0.4-1.9 0.4 -1.8 0-2.9-1.2-2.9-2.9s1-3.1 2.7-3.1c1.9 0 2.4 1.7 2.4 2.7 0 0.2 0 0.4 0 0.5H694.4zM697.5 240.1c0-0.7-0.3-1.7-1.5-1.7 -1.1 0-1.5 1-1.6 1.7H697.5z"/>
    <path fill="#005894" d="M699.9 239.4c0-0.6 0-1.1 0-1.6h0.9l0 0.9h0c0.3-0.6 0.9-1.1 1.8-1.1 0.8 0 1.4 0.5 1.6 1.2h0c0.2-0.3 0.4-0.6 0.6-0.8 0.3-0.3 0.7-0.4 1.3-0.4 0.8 0 1.9 0.5 1.9 2.5v3.4h-1v-3.3c0-1.1-0.4-1.8-1.3-1.8 -0.6 0-1.1 0.4-1.2 1 0 0.1-0.1 0.3-0.1 0.5v3.6h-1v-3.5c0-0.9-0.4-1.6-1.2-1.6 -0.7 0-1.1 0.5-1.3 1.1 -0.1 0.2-0.1 0.3-0.1 0.5v3.5h-1V239.4z"/>
    <path fill="#005894" d="M709.8 243.6c0-0.4 0-1 0-1.5v-7h1v3.6h0c0.4-0.6 1-1.1 2-1.1 1.4 0 2.5 1.2 2.4 3 0 2.1-1.3 3.1-2.6 3.1 -0.8 0-1.5-0.3-1.9-1.1h0l0 1H709.8zM710.9 241.3c0 0.1 0 0.3 0 0.4 0.2 0.7 0.8 1.2 1.6 1.2 1.1 0 1.8-0.9 1.8-2.2 0-1.2-0.6-2.2-1.7-2.2 -0.7 0-1.4 0.5-1.6 1.3 0 0.1-0.1 0.3-0.1 0.4V241.3z"/>
    <path fill="#005894" d="M716.7 239.6c0-0.7 0-1.3 0-1.8h0.9l0 1.1h0c0.3-0.8 0.9-1.3 1.6-1.3 0.1 0 0.2 0 0.3 0v1c-0.1 0-0.2 0-0.4 0 -0.7 0-1.3 0.6-1.4 1.4 0 0.1 0 0.3 0 0.5v3.1h-1V239.6z"/>
    <path fill="#005894" d="M723.8 243.6l-0.1-0.7h0c-0.3 0.5-0.9 0.9-1.8 0.9 -1.2 0-1.8-0.8-1.8-1.7 0-1.4 1.2-2.2 3.5-2.2v-0.1c0-0.5-0.1-1.3-1.3-1.3 -0.5 0-1.1 0.2-1.5 0.4l-0.2-0.7c0.5-0.3 1.2-0.5 1.9-0.5 1.8 0 2.2 1.2 2.2 2.4v2.2c0 0.5 0 1 0.1 1.4H723.8zM723.7 240.6c-1.2 0-2.5 0.2-2.5 1.3 0 0.7 0.5 1 1 1 0.8 0 1.2-0.5 1.4-1 0-0.1 0.1-0.2 0.1-0.3V240.6z"/>
    <path fill="#005894" d="M726.4 239.4c0-0.6 0-1.1 0-1.6h0.9l0.1 1h0c0.3-0.6 1-1.1 1.9-1.1 0.8 0 2.1 0.5 2.1 2.5v3.5h-1.1v-3.3c0-0.9-0.3-1.7-1.3-1.7 -0.7 0-1.2 0.5-1.4 1.1 0 0.1-0.1 0.3-0.1 0.5v3.5h-1.1V239.4z"/>
    <path fill="#005894" d="M733.7 240.9c0 1.4 0.9 2 2 2 0.8 0 1.2-0.1 1.6-0.3l0.2 0.8c-0.4 0.2-1 0.4-1.9 0.4 -1.8 0-2.9-1.2-2.9-2.9s1-3.1 2.7-3.1c1.9 0 2.4 1.7 2.4 2.7 0 0.2 0 0.4 0 0.5H733.7zM736.8 240.1c0-0.7-0.3-1.7-1.5-1.7 -1.1 0-1.5 1-1.6 1.7H736.8z"/>
    <path fill="#005894" d="M741.5 242.3c0.5 0.3 1.2 0.5 1.9 0.5 1.1 0 1.7-0.6 1.7-1.4 0-0.8-0.4-1.2-1.5-1.6 -1.3-0.5-2.1-1.2-2.1-2.3 0-1.3 1-2.2 2.6-2.2 0.8 0 1.4 0.2 1.8 0.4l-0.3 0.9c-0.3-0.1-0.8-0.4-1.5-0.4 -1.1 0-1.5 0.7-1.5 1.2 0 0.8 0.5 1.1 1.6 1.6 1.4 0.5 2.1 1.2 2.1 2.4 0 1.2-0.9 2.3-2.8 2.3 -0.8 0-1.6-0.2-2.1-0.5L741.5 242.3z"/>
    <path fill="#005894" d="M747.5 239.7c0-0.7 0-1.3 0-1.9h0.9l0 1h0c0.4-0.7 1.1-1.1 2.1-1.1 1.4 0 2.5 1.2 2.5 3 0 2.1-1.3 3.1-2.6 3.1 -0.8 0-1.4-0.3-1.8-0.9h0v3.2h-1V239.7zM748.6 241.2c0 0.2 0 0.3 0 0.4 0.2 0.7 0.8 1.2 1.6 1.2 1.1 0 1.8-0.9 1.8-2.2 0-1.2-0.6-2.2-1.7-2.2 -0.7 0-1.4 0.5-1.6 1.3 0 0.1-0.1 0.3-0.1 0.4V241.2z"/>
    <path fill="#005894" d="M757.6 243.6l-0.1-0.7h0c-0.3 0.5-0.9 0.9-1.8 0.9 -1.2 0-1.8-0.8-1.8-1.7 0-1.4 1.2-2.2 3.5-2.2v-0.1c0-0.5-0.1-1.3-1.3-1.3 -0.5 0-1.1 0.2-1.5 0.4l-0.2-0.7c0.5-0.3 1.2-0.5 1.9-0.5 1.8 0 2.2 1.2 2.2 2.4v2.2c0 0.5 0 1 0.1 1.4H757.6zM757.4 240.6c-1.2 0-2.5 0.2-2.5 1.3 0 0.7 0.5 1 1 1 0.8 0 1.2-0.5 1.4-1 0-0.1 0.1-0.2 0.1-0.3V240.6z"/>
    <path fill="#005894" d="M764.3 243.4c-0.3 0.1-0.9 0.3-1.7 0.3 -1.8 0-2.9-1.2-2.9-3 0-1.8 1.2-3.1 3.1-3.1 0.6 0 1.2 0.2 1.5 0.3l-0.2 0.8c-0.3-0.1-0.6-0.3-1.2-0.3 -1.3 0-2.1 1-2.1 2.2 0 1.3 0.9 2.2 2 2.2 0.6 0 1-0.2 1.3-0.3L764.3 243.4z"/>
    <path fill="#005894" d="M766.1 240.9c0 1.4 0.9 2 2 2 0.8 0 1.2-0.1 1.6-0.3l0.2 0.8c-0.4 0.2-1 0.4-1.9 0.4 -1.8 0-2.9-1.2-2.9-2.9s1-3.1 2.7-3.1c1.9 0 2.4 1.7 2.4 2.7 0 0.2 0 0.4 0 0.5H766.1zM769.2 240.1c0-0.7-0.3-1.7-1.5-1.7 -1.1 0-1.5 1-1.6 1.7H769.2z"/>
  </g>
  <g id="Layer_43">
    <path fill="none" stroke="#000000" stroke-width="2" stroke-miterlimit="10" d="M216.1 70c-1.1 15.8-14.3 28.3-30.4 28.3 -16.8 0-30.5-13.7-30.5-30.5"/>
    <polygon points="207 75.5 208.2 77.1 215.8 70.7 221.6 78.7 223.2 77.6 216.2 67.8 "/>
  </g>
  <g id="Layer_42">
    <path fill="none" stroke="#000000" stroke-width="2" stroke-miterlimit="10" d="M352.1 70c-1.1 15.8-14.3 28.3-30.4 28.3 -16.8 0-30.5-13.7-30.5-30.5"/>
    <polygon points="343 75.5 344.2 77.1 351.8 70.7 357.6 78.7 359.2 77.6 352.2 67.8 "/>
  </g>
  <g id="Layer_41">
    <path fill="none" stroke="#000000" stroke-width="2" stroke-miterlimit="10" d="M617.1 70c-1.1 15.8-14.3 28.3-30.4 28.3 -16.8 0-30.5-13.7-30.5-30.5"/>
    <polygon points="608 75.5 609.2 77.1 616.8 70.7 622.6 78.7 624.2 77.6 617.2 67.8 "/>
  </g>
  <g id="Layer_40">
    <path fill="none" stroke="#000000" stroke-width="2" stroke-miterlimit="10" d="M750.1 70c-1.1 15.8-14.3 28.3-30.4 28.3 -16.8 0-30.5-13.7-30.5-30.5"/>
    <polygon points="741 75.5 742.2 77.1 749.8 70.7 755.6 78.7 757.2 77.6 750.2 67.8 "/>
  </g>
  <g id="Layer_39">
    <line fill="none" stroke="#000000" stroke-width="2" stroke-miterlimit="10" x1="215.7" y1="141.3" x2="215.7" y2="165.3"/>
    <polygon points="207.5 158.5 209 157.2 215.7 164.4 222.4 157.2 223.8 158.5 215.7 167.3 "/>
  </g>
  <g id="Layer_38">
    <line fill="none" stroke="#000000" stroke-width="2" stroke-miterlimit="10" x1="493.7" y1="141.3" x2="493.7" y2="165.3"/>
    <polygon points="485.5 158.5 487 157.2 493.7 164.4 500.4 157.2 501.8 158.5 493.7 167.3 "/>
  </g>
  <g id="Layer_37">
    <line fill="none" stroke="#000000" stroke-width="2" stroke-miterlimit="10" x1="617.7" y1="141.3" x2="617.7" y2="165.3"/>
    <polygon points="609.5 158.5 611 157.2 617.7 164.4 624.4 157.2 625.8 158.5 617.7 167.3 "/>
  </g>
  <g id="Layer_36">
    <line fill="none" stroke="#000000" stroke-width="2" stroke-miterlimit="10" x1="750.7" y1="134.3" x2="750.7" y2="167.3"/>
    <polygon points="742.5 141.1 744 142.5 750.7 135.3 757.4 142.5 758.8 141.1 750.7 132.3 "/>
  </g>
  <g id="Layer_35">
    <line fill="none" stroke="#000000" stroke-width="2" stroke-miterlimit="10" x1="154.7" y1="167.3" x2="154.7" y2="142.3"/>
    <rect x="147.7" y="141.3" width="13" height="2"/>
  </g>
  <g id="Layer_34">
    <line fill="none" stroke="#000000" stroke-width="2" stroke-miterlimit="10" x1="428.7" y1="167.3" x2="428.7" y2="142.3"/>
    <rect x="421.7" y="141.3" width="13" height="2"/>
  </g>
  <g id="Layer_33">
    <line fill="none" stroke="#000000" stroke-width="2" stroke-miterlimit="10" x1="555.7" y1="167.3" x2="555.7" y2="142.3"/>
    <rect x="548.7" y="141.3" width="13" height="2"/>
  </g>
  <g id="Layer_32">
    <line fill="none" stroke="#000000" stroke-width="2" stroke-miterlimit="10" x1="689.7" y1="167.3" x2="689.7" y2="133.3"/>
    <rect x="682.7" y="132.3" width="13" height="2"/>
  </g>
  <g id="Layer_31">
    <path fill="none" stroke="#000000" stroke-width="2" stroke-miterlimit="10" d="M750.7 203.3v11c0 6.6-5.4 12-12 12h-511c-6.6 0-12-5.4-12-12v-13"/>
    <polygon points="742.5 210.1 744 211.5 750.7 204.3 757.4 211.5 758.8 210.1 750.7 201.3 "/>
  </g>
  <g id="Layer_30">
    <path fill="none" stroke="#000000" stroke-width="2" stroke-miterlimit="10" d="M750.7 203.3v11c0 6.6-5.4 12-12 12h-233c-6.6 0-12-5.4-12-12v-13"/>
    <polygon points="742.5 210.1 744 211.5 750.7 204.3 757.4 211.5 758.8 210.1 750.7 201.3 "/>
  </g>
  <g id="Layer_29">
    <path fill="none" stroke="#000000" stroke-width="2" stroke-miterlimit="10" d="M750.7 203.3v11c0 6.6-5.4 12-12 12h-109c-6.6 0-12-5.4-12-12v-13"/>
    <polygon points="742.5 210.1 744 211.5 750.7 204.3 757.4 211.5 758.8 210.1 750.7 201.3 "/>
  </g>
  <g id="Layer_28">
    <path fill="none" stroke="#000000" stroke-width="2" stroke-miterlimit="10" d="M215.7 201.3v7c0 6.6-5.4 12-12 12h-118c-6.6 0-12-5.4-12-12v-138"/>
    <polygon points="81.8 76.6 80.4 78 73.7 70.8 67 78 65.5 76.6 73.7 67.8 "/>
  </g>
  <g id="Layer_27">
    <path fill="none" stroke="#000000" stroke-width="2" stroke-miterlimit="10" d="M493.7 201.3v7c0 6.6-5.4 12-12 12h-396c-6.6 0-12-5.4-12-12v-138"/>
    <polygon points="81.8 76.6 80.4 78 73.7 70.8 67 78 65.5 76.6 73.7 67.8 "/>
  </g>
  <g id="Layer_26">
    <path fill="none" stroke="#000000" stroke-width="2" stroke-miterlimit="10" d="M617.7 201.3v7c0 6.6-5.4 12-12 12h-520c-6.6 0-12-5.4-12-12v-138"/>
    <polygon points="81.8 76.6 80.4 78 73.7 70.8 67 78 65.5 76.6 73.7 67.8 "/>
  </g>
  <g id="Complex_I_x0D__x28_NADH_x0D_dehydrogenase_x29_">
    <path fill="none" stroke="#BC9546" stroke-width="3" d="M139.8 129.8c0 2.8 2.2 5 5 5h81.7c2.8 0 5-2.2 5-5V87.9c0-2.8-2.2-5-5-5h-81.7c-2.8 0-5 2.2-5 5V129.8z"/>
    <path fill="#FFFFFF" d="M139.8 129.8c0 2.8 2.2 5 5 5h81.7c2.8 0 5-2.2 5-5V87.9c0-2.8-2.2-5-5-5h-81.7c-2.8 0-5 2.2-5 5V129.8z"/>
    <text transform="matrix(1 0 0 1 160.5693 97.9561)">
      <tspan x="0" y="0" font-family="'MyriadPro-Regular'" font-size="12">
        Complex I
      </tspan>
      <tspan x="7.9" y="14.4" font-family="'MyriadPro-Regular'" font-size="12">
        (NADH
      </tspan>
      <tspan x="-15.8" y="28.8" font-family="'MyriadPro-Regular'" font-size="12">
        dehydrogenase)
      </tspan>
    </text>
  </g>
  <g id="Complex_II_x0D__x28_succinate_x0D_dehydrogenase_x29_">
    <path fill="none" stroke="#BC9546" stroke-width="3" d="M273.3 129.8c0 2.8 2.2 5 5 5H360c2.8 0 5-2.2 5-5V87.9c0-2.8-2.2-5-5-5h-81.7c-2.8 0-5 2.2-5 5V129.8z"/>
    <path fill="#FFFFFF" d="M273.3 129.8c0 2.8 2.2 5 5 5H360c2.8 0 5-2.2 5-5V87.9c0-2.8-2.2-5-5-5h-81.7c-2.8 0-5 2.2-5 5V129.8z"/>
    <text transform="matrix(1 0 0 1 292.6357 97.9561)">
      <tspan x="0" y="0" font-family="'MyriadPro-Regular'" font-size="12">
        Complex II
      </tspan>
      <tspan x="1.2" y="14.4" font-family="'MyriadPro-Regular'" font-size="12">
        (succinate
      </tspan>
      <tspan x="-14.3" y="28.8" font-family="'MyriadPro-Regular'" font-size="12">
        dehydrogenase)
      </tspan>
    </text>
  </g>
  <g id="Complex_III_x0D__x28_coQ-cytochrome_c_x0D_oxidoreductase_x29_">
    <path fill="none" stroke="#BC9546" stroke-width="3" d="M400 129.8c0 2.8 2.2 5 5 5h95.4c2.8 0 5-2.2 5-5V87.9c0-2.8-2.2-5-5-5H405c-2.8 0-5 2.2-5 5V129.8z"/>
    <path fill="#FFFFFF" d="M400 129.8c0 2.8 2.2 5 5 5h95.4c2.8 0 5-2.2 5-5V87.9c0-2.8-2.2-5-5-5H405c-2.8 0-5 2.2-5 5V129.8z"/>
    <text transform="matrix(1 0 0 1 424.7012 97.9561)">
      <tspan x="0" y="0" font-family="'MyriadPro-Regular'" font-size="12">
        Complex III
      </tspan>
      <tspan x="-19.7" y="14.4" font-family="'MyriadPro-Regular'" font-size="12">
        (coQ-cytochrome c
      </tspan>
      <tspan x="-12.5" y="28.8" font-family="'MyriadPro-Regular'" font-size="12">
        oxidoreductase)
      </tspan>
    </text>
  </g>
  <g id="Complex_IV_x0D__x28_cytochrome_c_x0D_oxidase_x29_">
    <path fill="none" stroke="#BC9546" stroke-width="3" d="M545.4 129.8c0 2.8 2.2 5 5 5h71.5c2.8 0 5-2.2 5-5V87.9c0-2.8-2.2-5-5-5h-71.5c-2.8 0-5 2.2-5 5V129.8z"/>
    <path fill="#FFFFFF" d="M545.4 129.8c0 2.8 2.2 5 5 5h71.5c2.8 0 5-2.2 5-5V87.9c0-2.8-2.2-5-5-5h-71.5c-2.8 0-5 2.2-5 5V129.8z"/>
    <text transform="matrix(1 0 0 1 557.7217 97.9561)">
      <tspan x="0" y="0" font-family="'MyriadPro-Regular'" font-size="12">
        Complex IV
      </tspan>
      <tspan x="-7.3" y="14.4" font-family="'MyriadPro-Regular'" font-size="12">
        (cytochrome c
      </tspan>
      <tspan x="7.6" y="28.8" font-family="'MyriadPro-Regular'" font-size="12">
        oxidase)
      </tspan>
    </text>
  </g>
  <g id="Complex_V_x0D__x28_ATP_synthase_x29_">
    <path fill="none" stroke="#BC9546" stroke-width="3" d="M678 122.6c0 2.8 2.2 5 5 5h73.3c2.8 0 5-2.2 5-5V95.1c0-2.8-2.2-5-5-5H683c-2.8 0-5 2.2-5 5V122.6z"/>
    <path fill="#FFFFFF" d="M678 122.6c0 2.8 2.2 5 5 5h73.3c2.8 0 5-2.2 5-5V95.1c0-2.8-2.2-5-5-5H683c-2.8 0-5 2.2-5 5V122.6z"/>
    <text transform="matrix(1 0 0 1 692.6553 105.1558)">
      <tspan x="0" y="0" font-family="'MyriadPro-Regular'" font-size="12">
        Complex V
      </tspan>
      <tspan x="-9.6" y="14.4" font-family="'MyriadPro-Regular'" font-size="12">
        (ATP synthase)
      </tspan>
    </text>
  </g>
  <g id="Rotenone">
    <path fill="none" stroke="#4D3E3A" stroke-width="3" d="M125.7 191.3c0 2.8 2.2 5 5 5h48.9c2.8 0 5-2.2 5-5v-13c0-2.8-2.2-5-5-5h-48.9c-2.8 0-5 2.2-5 5V191.3z"/>
    <path fill="#FFFFFF" d="M125.7 191.3c0 2.8 2.2 5 5 5h48.9c2.8 0 5-2.2 5-5v-13c0-2.8-2.2-5-5-5h-48.9c-2.8 0-5 2.2-5 5V191.3z"/>
    <text transform="matrix(1 0 0 1 130.6934 188.334)" font-family="'MyriadPro-Regular'" font-size="12">
      Rotenone
    </text>
  </g>
  <g id="Antimycin_A">
    <path fill="none" stroke="#4D3E3A" stroke-width="3" d="M393.6 191.3c0 2.8 2.2 5 5 5h61.2c2.8 0 5-2.2 5-5v-13c0-2.8-2.2-5-5-5h-61.2c-2.8 0-5 2.2-5 5V191.3z"/>
    <path fill="#FFFFFF" d="M393.6 191.3c0 2.8 2.2 5 5 5h61.2c2.8 0 5-2.2 5-5v-13c0-2.8-2.2-5-5-5h-61.2c-2.8 0-5 2.2-5 5V191.3z"/>
    <text transform="matrix(1 0 0 1 398.5781 188.334)" font-family="'MyriadPro-Regular'" font-size="12">
      Antimycin A
    </text>
  </g>
  <g id="Cyanide_x2C__CO">
    <path fill="none" stroke="#4D3E3A" stroke-width="3" d="M520.7 191.3c0 2.8 2.2 5 5 5h60.9c2.8 0 5-2.2 5-5v-13c0-2.8-2.2-5-5-5h-60.9c-2.8 0-5 2.2-5 5V191.3z"/>
    <path fill="#FFFFFF" d="M520.7 191.3c0 2.8 2.2 5 5 5h60.9c2.8 0 5-2.2 5-5v-13c0-2.8-2.2-5-5-5h-60.9c-2.8 0-5 2.2-5 5V191.3z"/>
    <text transform="matrix(1 0 0 1 525.7178 188.334)" font-family="'MyriadPro-Regular'" font-size="12">
      Cyanide, CO
    </text>
  </g>
  <g id="Oligomycin">
    <path fill="none" stroke="#4D3E3A" stroke-width="3" d="M655.3 191.3c0 2.8 2.2 5 5 5H718c2.8 0 5-2.2 5-5v-13c0-2.8-2.2-5-5-5h-57.7c-2.8 0-5 2.2-5 5V191.3z"/>
    <path fill="#FFFFFF" d="M655.3 191.3c0 2.8 2.2 5 5 5H718c2.8 0 5-2.2 5-5v-13c0-2.8-2.2-5-5-5h-57.7c-2.8 0-5 2.2-5 5V191.3z"/>
    <text transform="matrix(1 0 0 1 660.3135 188.334)" font-family="'MyriadPro-Regular'" font-size="12">
      Oligomycin
    </text>
  </g>
  <g id="_x32__x2C_4-dinitrophenol">
    <path fill="none" stroke="#4D3E3A" stroke-width="3" d="M24.9 115.4c0 2.8 2.2 5 5 5h87.6c2.8 0 5-2.2 5-5v-13c0-2.8-2.2-5-5-5H29.9c-2.8 0-5 2.2-5 5V115.4z"/>
    <path fill="#FFFFFF" d="M24.9 115.4c0 2.8 2.2 5 5 5h87.6c2.8 0 5-2.2 5-5v-13c0-2.8-2.2-5-5-5H29.9c-2.8 0-5 2.2-5 5V115.4z"/>
    <text transform="matrix(1 0 0 1 29.8735 112.356)" font-family="'MyriadPro-Regular'" font-size="12">
      2,4-dinitrophenol
    </text>
  </g>
  <g id="NADH">
    <path fill="none" stroke="#87C94E" stroke-width="3" d="M134.6 56.7c0 2.8 2.2 5 5 5h31.1c2.8 0 5-2.2 5-5v-13c0-2.8-2.2-5-5-5h-31.1c-2.8 0-5 2.2-5 5V56.7z"/>
    <path fill="#FFFFFF" d="M134.6 56.7c0 2.8 2.2 5 5 5h31.1c2.8 0 5-2.2 5-5v-13c0-2.8-2.2-5-5-5h-31.1c-2.8 0-5 2.2-5 5V56.7z"/>
    <text transform="matrix(1 0 0 1 139.6392 53.667)" font-family="'MyriadPro-Regular'" font-size="12">
      NADH
    </text>
  </g>
  <g id="NAD_x2B_">
    <path fill="none" stroke="#AC57B3" stroke-width="3" d="M196 56.7c0 2.8 2.2 5 5 5h30.4c2.8 0 5-2.2 5-5v-13c0-2.8-2.2-5-5-5H201c-2.8 0-5 2.2-5 5V56.7z"/>
    <path fill="#FFFFFF" d="M196 56.7c0 2.8 2.2 5 5 5h30.4c2.8 0 5-2.2 5-5v-13c0-2.8-2.2-5-5-5H201c-2.8 0-5 2.2-5 5V56.7z"/>
    <text transform="matrix(1 0 0 1 200.9751 53.667)" font-family="'MyriadPro-Regular'" font-size="12">
      NAD+
    </text>
  </g>
  <g id="FADH2">
    <path fill="none" stroke="#87C94E" stroke-width="3" d="M268.6 56.7c0 2.8 2.2 5 5 5h35.2c2.8 0 5-2.2 5-5v-13c0-2.8-2.2-5-5-5h-35.2c-2.8 0-5 2.2-5 5V56.7z"/>
    <path fill="#FFFFFF" d="M268.6 56.7c0 2.8 2.2 5 5 5h35.2c2.8 0 5-2.2 5-5v-13c0-2.8-2.2-5-5-5h-35.2c-2.8 0-5 2.2-5 5V56.7z"/>
    <text transform="matrix(1 0 0 1 273.5874 53.667)" font-family="'MyriadPro-Regular'" font-size="12">
      FADH2
    </text>
  </g>
  <g id="FAD">
    <path fill="none" stroke="#AC57B3" stroke-width="3" d="M336.6 56.7c0 2.8 2.2 5 5 5h21.2c2.8 0 5-2.2 5-5v-13c0-2.8-2.2-5-5-5h-21.2c-2.8 0-5 2.2-5 5V56.7z"/>
    <path fill="#FFFFFF" d="M336.6 56.7c0 2.8 2.2 5 5 5h21.2c2.8 0 5-2.2 5-5v-13c0-2.8-2.2-5-5-5h-21.2c-2.8 0-5 2.2-5 5V56.7z"/>
    <text transform="matrix(1 0 0 1 341.5771 53.667)" font-family="'MyriadPro-Regular'" font-size="12">
      FAD
    </text>
  </g>
  <g id="O2__x2B__4H_x2B_">
    <path fill="none" stroke="#AC57B3" stroke-width="3" d="M526.9 56.7c0 2.8 2.2 5 5 5h47.8c2.8 0 5-2.2 5-5v-13c0-2.8-2.2-5-5-5h-47.8c-2.8 0-5 2.2-5 5V56.7z"/>
    <path fill="#FFFFFF" d="M526.9 56.7c0 2.8 2.2 5 5 5h47.8c2.8 0 5-2.2 5-5v-13c0-2.8-2.2-5-5-5h-47.8c-2.8 0-5 2.2-5 5V56.7z"/>
    <text transform="matrix(1 0 0 1 531.9355 53.667)" font-family="'MyriadPro-Regular'" font-size="12">
      O2 + 4H+
    </text>
  </g>
  <g id="_x32_H2O">
    <path fill="none" stroke="#AC57B3" stroke-width="3" d="M598 56.7c0 2.8 2.2 5 5 5h28.4c2.8 0 5-2.2 5-5v-13c0-2.8-2.2-5-5-5H603c-2.8 0-5 2.2-5 5V56.7z"/>
    <path fill="#FFFFFF" d="M598 56.7c0 2.8 2.2 5 5 5h28.4c2.8 0 5-2.2 5-5v-13c0-2.8-2.2-5-5-5H603c-2.8 0-5 2.2-5 5V56.7z"/>
    <text transform="matrix(1 0 0 1 602.9648 53.667)" font-family="'MyriadPro-Regular'" font-size="12">
      2H2O
    </text>
  </g>
  <g id="ADP__x2B__Pi">
    <path fill="none" stroke="#AC57B3" stroke-width="3" d="M662.6 56.7c0 2.8 2.2 5 5 5h43.2c2.8 0 5-2.2 5-5v-13c0-2.8-2.2-5-5-5h-43.2c-2.8 0-5 2.2-5 5V56.7z"/>
    <path fill="#FFFFFF" d="M662.6 56.7c0 2.8 2.2 5 5 5h43.2c2.8 0 5-2.2 5-5v-13c0-2.8-2.2-5-5-5h-43.2c-2.8 0-5 2.2-5 5V56.7z"/>
    <text transform="matrix(1 0 0 1 667.5918 53.667)" font-family="'MyriadPro-Regular'" font-size="12">
      ADP + Pi
    </text>
  </g>
  <g id="ATP">
    <path fill="none" stroke="#C24F4D" stroke-width="3" d="M735.3 56.7c0 2.8 2.2 5 5 5H760c2.8 0 5-2.2 5-5v-13c0-2.8-2.2-5-5-5h-19.7c-2.8 0-5 2.2-5 5V56.7z"/>
    <path fill="#FFFFFF" d="M735.3 56.7c0 2.8 2.2 5 5 5H760c2.8 0 5-2.2 5-5v-13c0-2.8-2.2-5-5-5h-19.7c-2.8 0-5 2.2-5 5V56.7z"/>
    <text transform="matrix(1 0 0 1 740.3213 53.667)" font-family="'MyriadPro-Regular'" font-size="12">
      ATP
    </text>
  </g>
  <g id="H_x2B__3_">
    <path fill="none" stroke="#9092BA" stroke-width="3" d="M203.7 191.3c0 2.8 2.2 5 5 5h15c2.8 0 5-2.2 5-5v-13c0-2.8-2.2-5-5-5h-15c-2.8 0-5 2.2-5 5V191.3z"/>
    <path fill="#FFFFFF" d="M203.7 191.3c0 2.8 2.2 5 5 5h15c2.8 0 5-2.2 5-5v-13c0-2.8-2.2-5-5-5h-15c-2.8 0-5 2.2-5 5V191.3z"/>
    <text transform="matrix(1 0 0 1 208.6792 188.334)" font-family="'MyriadPro-Regular'" font-size="12">
      H+
    </text>
  </g>
  <g id="H_x2B__2_">
    <path fill="none" stroke="#9092BA" stroke-width="3" d="M481.5 191.3c0 2.8 2.2 5 5 5h15c2.8 0 5-2.2 5-5v-13c0-2.8-2.2-5-5-5h-15c-2.8 0-5 2.2-5 5V191.3z"/>
    <path fill="#FFFFFF" d="M481.5 191.3c0 2.8 2.2 5 5 5h15c2.8 0 5-2.2 5-5v-13c0-2.8-2.2-5-5-5h-15c-2.8 0-5 2.2-5 5V191.3z"/>
    <text transform="matrix(1 0 0 1 486.5127 188.3335)" font-family="'MyriadPro-Regular'" font-size="12">
      H+
    </text>
  </g>
  <g id="H_x2B__1_">
    <path fill="none" stroke="#9092BA" stroke-width="3" d="M604.7 191.3c0 2.8 2.2 5 5 5h15c2.8 0 5-2.2 5-5v-13c0-2.8-2.2-5-5-5h-15c-2.8 0-5 2.2-5 5V191.3z"/>
    <path fill="#FFFFFF" d="M604.7 191.3c0 2.8 2.2 5 5 5h15c2.8 0 5-2.2 5-5v-13c0-2.8-2.2-5-5-5h-15c-2.8 0-5 2.2-5 5V191.3z"/>
    <text transform="matrix(1 0 0 1 609.6787 188.3335)" font-family="'MyriadPro-Regular'" font-size="12">
      H+
    </text>
  </g>
  <g id="H_x2B_">
    <path fill="none" stroke="#9092BA" stroke-width="3" d="M737.7 191.3c0 2.8 2.2 5 5 5h15c2.8 0 5-2.2 5-5v-13c0-2.8-2.2-5-5-5h-15c-2.8 0-5 2.2-5 5V191.3z"/>
    <path fill="#FFFFFF" d="M737.7 191.3c0 2.8 2.2 5 5 5h15c2.8 0 5-2.2 5-5v-13c0-2.8-2.2-5-5-5h-15c-2.8 0-5 2.2-5 5V191.3z"/>
    <text transform="matrix(1 0 0 1 742.6787 188.334)" font-family="'MyriadPro-Regular'" font-size="12">
      H+
    </text>
  </g>
</svg>