<svg xmlns="http://www.w3.org/2000/svg" xmlns:xlink="http://www.w3.org/1999/xlink" version="1.1" x="0" y="0" viewBox="0 0 471 768" enable-background="new 0 0 471 768" xml:space="preserve">
  <g id="Layer_51">
    <path fill="none" stroke="#000000" stroke-width="2" stroke-miterlimit="10" d="M326.3 101.5c-0.2-42.5-7.6-65.2-16.6-65.2"/>
    <polygon points="334.3 94.7 332.8 93.4 326.3 100.8 319.4 93.7 317.9 95.1 326.3 103.7 "/>
  </g>
  <g id="Layer_50">
    <path fill="none" stroke="#000000" stroke-width="2" stroke-miterlimit="10" d="M230.7 101.5c0.2-42.5 7.6-65.2 16.6-65.2"/>
    <polygon points="239.1 95.1 237.7 93.7 230.8 100.8 224.2 93.4 222.7 94.7 230.7 103.7 "/>
  </g>
  <g id="Layer_49">
    <line fill="none" stroke="#000000" stroke-width="2" x1="239.4" y1="210.4" x2="239.4" y2="273.4"/>
    <polygon points="231.2 266.6 232.7 265.2 239.4 272.4 246.1 265.2 247.6 266.6 239.4 275.4 "/>
  </g>
  <g id="Layer_48">
    <line fill="none" stroke="#000000" stroke-width="2" x1="318.4" y1="212.4" x2="318.4" y2="275.4"/>
    <polygon points="310.2 219.2 311.7 220.5 318.4 213.3 325.1 220.5 326.6 219.2 318.4 210.4 "/>
  </g>
  <g id="Layer_47">
    <line fill="none" stroke="#000000" stroke-width="2" x1="278.4" y1="308.4" x2="278.4" y2="369.4"/>
    <polygon points="270.2 315.2 271.7 316.5 278.4 309.3 285.1 316.5 286.6 315.2 278.4 306.4 "/>
    <polygon points="270.2 362.6 271.7 361.2 278.4 368.4 285.1 361.2 286.6 362.6 278.4 371.4 "/>
  </g>
  <g id="Layer_46">
    <polyline fill="none" stroke="#000000" stroke-width="2" points="298.4 308.4 298.4 339.4 391.4 339.4 391.4 369.4 "/>
    <polygon points="290.2 315.2 291.7 316.5 298.4 309.3 305.1 316.5 306.6 315.2 298.4 306.4 "/>
    <polygon points="383.2 362.6 384.7 361.2 391.4 368.4 398.1 361.2 399.6 362.6 391.4 371.4 "/>
  </g>
  <g id="Layer_45">
    <line fill="none" stroke="#000000" stroke-width="2" x1="337.4" y1="388.4" x2="365.4" y2="388.4"/>
    <polygon points="341.5 394.1 342.5 393.1 337.4 388.4 342.5 383.7 341.5 382.7 335.4 388.4 "/>
    <polygon points="361.2 394.1 360.3 393.1 365.3 388.4 360.3 383.7 361.2 382.7 367.4 388.4 "/>
  </g>
  <g id="Layer_44">
    <line fill="none" stroke="#000000" stroke-width="2" x1="278.4" y1="141.4" x2="278.4" y2="175.4"/>
    <polygon points="271.8 146.9 273 148 278.4 142.2 283.8 148 284.9 146.9 278.4 139.9 "/>
    <polygon points="271.8 170.3 273 169.3 278.4 175 283.8 169.3 284.9 170.3 278.4 177.4 "/>
  </g>
  <g id="Layer_43">
    <line fill="none" stroke="#000000" stroke-width="2" x1="278.4" y1="405.4" x2="278.4" y2="426.4"/>
    <polygon points="274.3 408.8 275 409.5 278.4 405.9 281.7 409.5 282.5 408.8 278.4 404.4 "/>
    <polygon points="274.3 423 275 422.3 278.4 425.9 281.7 422.3 282.5 423 278.4 427.4 "/>
  </g>
  <g id="Layer_42">
    <line fill="none" stroke="#000000" stroke-width="2" x1="278.4" y1="461.4" x2="278.4" y2="510.4"/>
    <polygon points="271.8 466.4 273 467.5 278.4 461.7 283.8 467.5 284.9 466.4 278.4 459.4 "/>
    <polygon points="271.8 505.3 273 504.3 278.4 510 283.8 504.3 284.9 505.3 278.4 512.4 "/>
  </g>
  <g id="Layer_41">
    <line fill="none" stroke="#000000" stroke-width="2" x1="278.4" y1="545.4" x2="278.4" y2="566.4"/>
    <polygon points="274.3 548.8 275 549.5 278.4 545.9 281.7 549.5 282.5 548.8 278.4 544.4 "/>
    <polygon points="274.3 563 275 562.3 278.4 565.9 281.7 562.3 282.5 563 278.4 567.4 "/>
  </g>
  <g id="Layer_40">
    <line fill="none" stroke="#000000" stroke-width="2" x1="278.4" y1="601.4" x2="278.4" y2="622.4"/>
    <polygon points="274.3 604.8 275 605.5 278.4 601.9 281.7 605.5 282.5 604.8 278.4 600.4 "/>
    <polygon points="274.3 619 275 618.3 278.4 621.9 281.7 618.3 282.5 619 278.4 623.4 "/>
  </g>
  <g id="Layer_39">
    <line fill="none" stroke="#000000" stroke-width="2" x1="278.4" y1="657.4" x2="278.4" y2="711.4"/>
    <polygon points="270.2 663.7 271.7 665 278.4 657.8 285.1 665 286.6 663.7 278.4 654.9 "/>
    <polygon points="270.2 704.6 271.7 703.2 278.4 710.4 285.1 703.2 286.6 704.6 278.4 713.4 "/>
  </g>
  <g id="Layer_38">
    <path fill="none" stroke="#000000" stroke-width="2" stroke-miterlimit="10" d="M343.2 123.8c9.7 6.6 23 4.1 29.5-5.6 6.6-9.7 4-22.9-5.7-29.5 -0.6-0.4-1.1-0.7-1.7-1"/>
    <rect x="364.3" y="81.2" transform="matrix(-0.8642 -0.5031 0.5031 -0.8642 636.9486 347.2448)" width="2" height="13"/>
  </g>
  <g id="Layer_37">
    <path fill="none" stroke="#000000" stroke-width="2" stroke-miterlimit="10" d="M212.2 197.4c-19.4 0-35.1-26-35.1-58.2 0-19.6 5.9-36.9 14.8-47.5"/>
    <rect x="190.9" y="85.3" transform="matrix(0.6426 -0.7662 0.7662 0.6426 -1.719 179.8189)" width="2" height="13"/>
  </g>
  <g id="Layer_36">
    <path fill="none" stroke="#000000" stroke-width="2" stroke-miterlimit="10" d="M159 223.2c-0.5-19.7-15.8-35.5-34.7-35.5"/>
    <rect x="158" y="216.7" transform="matrix(4.785517e-02 0.9989 -0.9989 4.785517e-02 374.3615 53.7128)" width="2" height="13"/>
  </g>
  <g id="Layer_35">
    <path fill="none" stroke="#000000" stroke-width="2" stroke-miterlimit="10" d="M188.9 271c-1.2 38-8.4 38-17.2 38"/>
    <polygon fill="#FFFFFF" points="181.6 259.6 188.8 272.4 196.6 260 "/>
    <path d="M180.3 258.9l8.5 15 9.1-14.6L180.3 258.9zM188.8 270.9l-5.9-10.5 12.3 0.3L188.8 270.9z"/>
  </g>
  <g id="Layer_34">
    <line fill="none" stroke="#000000" stroke-width="2" stroke-miterlimit="10" x1="68.4" y1="266.4" x2="119.3" y2="257.2"/>
    <polygon fill="#FFFFFF" points="131.6 262.5 118 257.4 129 247.8 "/>
    <path d="M132.6 263.7l-16.1-6 13-11.3L132.6 263.7zM119.4 257.1l11.3 4.2 -2.2-12.1L119.4 257.1z"/>
  </g>
  <g id="Layer_33">
    <line fill="none" stroke="#000000" stroke-width="2" stroke-miterlimit="10" x1="68.4" y1="221.1" x2="130.1" y2="228.9"/>
    <rect x="129.1" y="222.4" transform="matrix(0.9919 0.1267 -0.1267 0.9919 30.0552 -14.6349)" width="2" height="13"/>
  </g>
  <g id="Layer_32">
    <path fill="none" stroke="#000000" stroke-width="2" d="M203.7 306.4c-26.7 27.2-68.2 88.1-63.4 192.4 4.3 94.7 36.7 178.7 75.5 185.7"/>
    <polygon fill="#FFFFFF" points="227 691.6 214.4 684.1 227 676.6 "/>
    <path d="M227.7 692.9l-14.8-8.8 14.8-8.8L227.7 692.9zM215.9 684.1l10.3 6.2 0-12.3L215.9 684.1z"/>
  </g>
  <g id="Layer_31">
    <line fill="none" stroke="#000000" stroke-width="2" x1="402.4" y1="661.1" x2="330" y2="673.6"/>
    <rect x="329" y="667.1" transform="matrix(-0.9855 0.1699 -0.1699 -0.9855 769.7203 1281.2374)" width="2" height="13"/>
  </g>
  <g id="Layer_30">
    <line fill="none" stroke="#000000" stroke-width="2" x1="391.4" y1="709.1" x2="330" y2="694.6"/>
    <rect x="329" y="688.1" transform="matrix(-0.9734 -0.229 0.229 -0.9734 492.212 1446.3567)" width="2" height="13"/>
  </g>
  <g id="Layer_29">
    <path fill="none" stroke="#000000" stroke-width="2" stroke-miterlimit="10" d="M311.9 140.9c0.8 14.5 18.1 14.5 39.5 14.5"/>
    <rect x="310.9" y="134.4" transform="matrix(-4.271690e-02 -0.9991 0.9991 -4.271690e-02 184.4995 458.5481)" width="2" height="13"/>
  </g>
  <g id="Glucose">
    <path fill="none" stroke="#87C94E" stroke-width="3" d="M253.5 43.7c0 2.8 2.2 5 5 5h39.9c2.8 0 5-2.2 5-5v-13c0-2.8-2.2-5-5-5h-39.9c-2.8 0-5 2.2-5 5V43.7z"/>
    <path fill="#FFFFFF" d="M253.5 43.7c0 2.8 2.2 5 5 5h39.9c2.8 0 5-2.2 5-5v-13c0-2.8-2.2-5-5-5h-39.9c-2.8 0-5 2.2-5 5V43.7z"/>
    <text transform="matrix(1 0 0 1 258.4878 40.7188)" font-family="'MyriadPro-Regular'" font-size="12">
      Glucose
    </text>
  </g>
  <g id="Glucose-6-phosphate">
    <path fill="none" stroke="#9092BA" stroke-width="3" d="M219.7 129.2c0 2.8 2.2 5 5 5h107.5c2.8 0 5-2.2 5-5v-13c0-2.8-2.2-5-5-5H224.7c-2.8 0-5 2.2-5 5V129.2z"/>
    <path fill="#FFFFFF" d="M219.7 129.2c0 2.8 2.2 5 5 5h107.5c2.8 0 5-2.2 5-5v-13c0-2.8-2.2-5-5-5H224.7c-2.8 0-5 2.2-5 5V129.2z"/>
    <text transform="matrix(1 0 0 1 224.6851 126.2061)" font-family="'MyriadPro-Regular'" font-size="12">
      Glucose-6-phosphate
    </text>
  </g>
  <g id="Fructose-6-phosphate">
    <path fill="none" stroke="#9092BA" stroke-width="3" d="M218.1 199.9c0 2.8 2.2 5 5 5h110.7c2.8 0 5-2.2 5-5v-13c0-2.8-2.2-5-5-5H223.1c-2.8 0-5 2.2-5 5V199.9z"/>
    <path fill="#FFFFFF" d="M218.1 199.9c0 2.8 2.2 5 5 5h110.7c2.8 0 5-2.2 5-5v-13c0-2.8-2.2-5-5-5H223.1c-2.8 0-5 2.2-5 5V199.9z"/>
    <text transform="matrix(1 0 0 1 223.1069 196.9497)" font-family="'MyriadPro-Regular'" font-size="12">
      Fructose-6-phosphate
    </text>
  </g>
  <g id="Fructose-1_x2C_6-bisphosphate">
    <path fill="none" stroke="#9092BA" stroke-width="3" d="M206.6 297.4c0 2.8 2.2 5 5 5h133.7c2.8 0 5-2.2 5-5v-13c0-2.8-2.2-5-5-5H211.6c-2.8 0-5 2.2-5 5V297.4z"/>
    <path fill="#FFFFFF" d="M206.6 297.4c0 2.8 2.2 5 5 5h133.7c2.8 0 5-2.2 5-5v-13c0-2.8-2.2-5-5-5H211.6c-2.8 0-5 2.2-5 5V297.4z"/>
    <text transform="matrix(1 0 0 1 211.5933 294.437)" font-family="'MyriadPro-Regular'" font-size="12">
      Fructose-1,6-bisphosphate
    </text>
  </g>
  <g id="Glyceraldehyde-3-P">
    <path fill="none" stroke="#9092BA" stroke-width="3" d="M224.5 394.9c0 2.8 2.2 5 5 5h97.9c2.8 0 5-2.2 5-5v-13c0-2.8-2.2-5-5-5h-97.9c-2.8 0-5 2.2-5 5V394.9z"/>
    <path fill="#FFFFFF" d="M224.5 394.9c0 2.8 2.2 5 5 5h97.9c2.8 0 5-2.2 5-5v-13c0-2.8-2.2-5-5-5h-97.9c-2.8 0-5 2.2-5 5V394.9z"/>
    <text transform="matrix(1 0 0 1 229.4785 391.9243)" font-family="'MyriadPro-Regular'" font-size="12">
      Glyceraldehyde-3-P
    </text>
  </g>
  <g id="DHAP">
    <path fill="none" stroke="#9092BA" stroke-width="3" d="M371.6 394.9c0 2.8 2.2 5 5 5h29.5c2.8 0 5-2.2 5-5v-13c0-2.8-2.2-5-5-5h-29.5c-2.8 0-5 2.2-5 5V394.9z"/>
    <path fill="#FFFFFF" d="M371.6 394.9c0 2.8 2.2 5 5 5h29.5c2.8 0 5-2.2 5-5v-13c0-2.8-2.2-5-5-5h-29.5c-2.8 0-5 2.2-5 5V394.9z"/>
    <text transform="matrix(1 0 0 1 376.6152 391.9243)" font-family="'MyriadPro-Regular'" font-size="12">
      DHAP
    </text>
  </g>
  <g id="_x31__x2C_3-bis-phosphoglycerate">
    <path fill="none" stroke="#9092BA" stroke-width="3" d="M209.6 450.2c0 2.8 2.2 5 5 5h127.7c2.8 0 5-2.2 5-5v-13c0-2.8-2.2-5-5-5H214.6c-2.8 0-5 2.2-5 5V450.2z"/>
    <path fill="#FFFFFF" d="M209.6 450.2c0 2.8 2.2 5 5 5h127.7c2.8 0 5-2.2 5-5v-13c0-2.8-2.2-5-5-5H214.6c-2.8 0-5 2.2-5 5V450.2z"/>
    <text transform="matrix(1 0 0 1 214.5869 447.168)" font-family="'MyriadPro-Regular'" font-size="12">
      1,3-bis-phosphoglycerate
    </text>
  </g>
  <g id="_x33_-phosphoglycerate">
    <path fill="none" stroke="#9092BA" stroke-width="3" d="M222.9 535.4c0 2.8 2.2 5 5 5h101c2.8 0 5-2.2 5-5v-13c0-2.8-2.2-5-5-5h-101c-2.8 0-5 2.2-5 5V535.4z"/>
    <path fill="#FFFFFF" d="M222.9 535.4c0 2.8 2.2 5 5 5h101c2.8 0 5-2.2 5-5v-13c0-2.8-2.2-5-5-5h-101c-2.8 0-5 2.2-5 5V535.4z"/>
    <text transform="matrix(1 0 0 1 227.9424 532.4116)" font-family="'MyriadPro-Regular'" font-size="12">
      3-phosphoglycerate
    </text>
  </g>
  <g id="_x32_-phosphoglycerate">
    <path fill="none" stroke="#9092BA" stroke-width="3" d="M222.9 590.7c0 2.8 2.2 5 5 5h101c2.8 0 5-2.2 5-5v-13c0-2.8-2.2-5-5-5h-101c-2.8 0-5 2.2-5 5V590.7z"/>
    <path fill="#FFFFFF" d="M222.9 590.7c0 2.8 2.2 5 5 5h101c2.8 0 5-2.2 5-5v-13c0-2.8-2.2-5-5-5h-101c-2.8 0-5 2.2-5 5V590.7z"/>
    <text transform="matrix(1 0 0 1 227.9424 587.6548)" font-family="'MyriadPro-Regular'" font-size="12">
      2-phosphoglycerate
    </text>
  </g>
  <g id="Phosphoenolpyruvate__x28_PEP_x29_">
    <path fill="none" stroke="#9092BA" stroke-width="3" d="M203.9 645.9c0 2.8 2.2 5 5 5H348c2.8 0 5-2.2 5-5v-13c0-2.8-2.2-5-5-5H208.9c-2.8 0-5 2.2-5 5V645.9z"/>
    <path fill="#FFFFFF" d="M203.9 645.9c0 2.8 2.2 5 5 5H348c2.8 0 5-2.2 5-5v-13c0-2.8-2.2-5-5-5H208.9c-2.8 0-5 2.2-5 5V645.9z"/>
    <text transform="matrix(1 0 0 1 208.8809 642.8989)" font-family="'MyriadPro-Regular'" font-size="12">
      Phosphoenolpyruvate (PEP)
    </text>
  </g>
  <g id="Pyruvate">
    <path fill="none" stroke="#C24F4D" stroke-width="3" d="M251.4 737.9c0 2.8 2.2 5 5 5h44.1c2.8 0 5-2.2 5-5v-13c0-2.8-2.2-5-5-5h-44.1c-2.8 0-5 2.2-5 5V737.9z"/>
    <path fill="#FFFFFF" d="M251.4 737.9c0 2.8 2.2 5 5 5h44.1c2.8 0 5-2.2 5-5v-13c0-2.8-2.2-5-5-5h-44.1c-2.8 0-5 2.2-5 5V737.9z"/>
    <text transform="matrix(1 0 0 1 256.394 734.8853)" font-family="'MyriadPro-Regular'" font-size="12">
      Pyruvate
    </text>
  </g>
  <g id="Hexokinase">
    <path fill="none" stroke="#BC9546" stroke-width="3" d="M292.5 80.5c0 2.8 2.2 5 5 5h57.6c2.8 0 5-2.2 5-5v-13c0-2.8-2.2-5-5-5h-57.6c-2.8 0-5 2.2-5 5V80.5z"/>
    <path fill="#FFFFFF" d="M292.5 80.5c0 2.8 2.2 5 5 5h57.6c2.8 0 5-2.2 5-5v-13c0-2.8-2.2-5-5-5h-57.6c-2.8 0-5 2.2-5 5V80.5z"/>
    <text transform="matrix(1 0 0 1 297.5029 77.4624)" font-family="'MyriadPro-Regular'" font-size="12">
      Hexokinase
    </text>
  </g>
  <g id="Glucokinase">
    <path fill="none" stroke="#BC9546" stroke-width="3" d="M195.2 80.5c0 2.8 2.2 5 5 5H261c2.8 0 5-2.2 5-5v-13c0-2.8-2.2-5-5-5h-60.8c-2.8 0-5 2.2-5 5V80.5z"/>
    <path fill="#FFFFFF" d="M195.2 80.5c0 2.8 2.2 5 5 5H261c2.8 0 5-2.2 5-5v-13c0-2.8-2.2-5-5-5h-60.8c-2.8 0-5 2.2-5 5V80.5z"/>
    <text transform="matrix(1 0 0 1 200.1841 77.4624)" font-family="'MyriadPro-Regular'" font-size="12">
      Glucokinase
    </text>
  </g>
  <g id="Phosphofructokinase-1">
    <path fill="none" stroke="#BC9546" stroke-width="3" d="M136.2 248.7c0 2.8 2.2 5 5 5h115.9c2.8 0 5-2.2 5-5v-13c0-2.8-2.2-5-5-5H141.2c-2.8 0-5 2.2-5 5V248.7z"/>
    <path fill="#FFFFFF" d="M136.2 248.7c0 2.8 2.2 5 5 5h115.9c2.8 0 5-2.2 5-5v-13c0-2.8-2.2-5-5-5H141.2c-2.8 0-5 2.2-5 5V248.7z"/>
    <text transform="matrix(1 0 0 1 141.1787 245.6934)" font-family="'MyriadPro-Regular'" font-size="12">
      Phosphofructokinase-1
    </text>
  </g>
  <g id="Fructose-1_x2C_6-bisphosphatase">
    <path fill="none" stroke="#BC9546" stroke-width="3" d="M274.5 248.7c0 2.8 2.2 5 5 5h144.2c2.8 0 5-2.2 5-5v-13c0-2.8-2.2-5-5-5H279.5c-2.8 0-5 2.2-5 5V248.7z"/>
    <path fill="#FFFFFF" d="M274.5 248.7c0 2.8 2.2 5 5 5h144.2c2.8 0 5-2.2 5-5v-13c0-2.8-2.2-5-5-5H279.5c-2.8 0-5 2.2-5 5V248.7z"/>
    <text transform="matrix(1 0 0 1 279.5127 245.6934)" font-family="'MyriadPro-Regular'" font-size="12">
      Fructose-1,6-bisphosphatase
    </text>
  </g>
  <g id="Aldolase__x28_A__x26__B_x29_">
    <path fill="none" stroke="#BC9546" stroke-width="3" d="M234.2 346.2c0 2.8 2.2 5 5 5h78.5c2.8 0 5-2.2 5-5v-13c0-2.8-2.2-5-5-5h-78.5c-2.8 0-5 2.2-5 5V346.2z"/>
    <path fill="#FFFFFF" d="M234.2 346.2c0 2.8 2.2 5 5 5h78.5c2.8 0 5-2.2 5-5v-13c0-2.8-2.2-5-5-5h-78.5c-2.8 0-5 2.2-5 5V346.2z"/>
    <text transform="matrix(1 0 0 1 239.2163 343.1807)" font-family="'MyriadPro-Regular'" font-size="12">
      Aldolase (A & B)
    </text>
  </g>
  <g id="Pyruvate_kinase">
    <path fill="none" stroke="#BC9546" stroke-width="3" d="M234.3 691.9c0 2.8 2.2 5 5 5h78.3c2.8 0 5-2.2 5-5v-13c0-2.8-2.2-5-5-5h-78.3c-2.8 0-5 2.2-5 5V691.9z"/>
    <path fill="#FFFFFF" d="M234.3 691.9c0 2.8 2.2 5 5 5h78.3c2.8 0 5-2.2 5-5v-13c0-2.8-2.2-5-5-5h-78.3c-2.8 0-5 2.2-5 5V691.9z"/>
    <text transform="matrix(1 0 0 1 239.3003 688.8931)" font-family="'MyriadPro-Regular'" font-size="12">
      Pyruvate kinase
    </text>
  </g>
  <g id="ATP_1_">
    <path fill="none" stroke="#AC57B3" stroke-width="3" d="M32.9 227.2c0 2.8 2.2 5 5 5h19.7c2.8 0 5-2.2 5-5v-13c0-2.8-2.2-5-5-5H37.9c-2.8 0-5 2.2-5 5V227.2z"/>
    <path fill="#FFFFFF" d="M32.9 227.2c0 2.8 2.2 5 5 5h19.7c2.8 0 5-2.2 5-5v-13c0-2.8-2.2-5-5-5H37.9c-2.8 0-5 2.2-5 5V227.2z"/>
    <text transform="matrix(1 0 0 1 37.875 224.2188)" font-family="'MyriadPro-Regular'" font-size="12">
      ATP
    </text>
  </g>
  <g id="Citrate">
    <path fill="none" stroke="#AC57B3" stroke-width="3" d="M73.3 194.7c0 2.8 2.2 5 5 5h33.4c2.8 0 5-2.2 5-5v-13c0-2.8-2.2-5-5-5H78.3c-2.8 0-5 2.2-5 5V194.7z"/>
    <path fill="#FFFFFF" d="M73.3 194.7c0 2.8 2.2 5 5 5h33.4c2.8 0 5-2.2 5-5v-13c0-2.8-2.2-5-5-5H78.3c-2.8 0-5 2.2-5 5V194.7z"/>
    <text transform="matrix(1 0 0 1 78.3389 191.7192)" font-family="'MyriadPro-Regular'" font-size="12">
      Citrate
    </text>
  </g>
  <g id="AMP">
    <path fill="none" stroke="#AC57B3" stroke-width="3" d="M31 273.4c0 2.8 2.2 5 5 5h23.4c2.8 0 5-2.2 5-5v-13c0-2.8-2.2-5-5-5H36c-2.8 0-5 2.2-5 5V273.4z"/>
    <path fill="#FFFFFF" d="M31 273.4c0 2.8 2.2 5 5 5h23.4c2.8 0 5-2.2 5-5v-13c0-2.8-2.2-5-5-5H36c-2.8 0-5 2.2-5 5V273.4z"/>
    <text transform="matrix(1 0 0 1 36.0332 270.3857)" font-family="'MyriadPro-Regular'" font-size="12">
      AMP
    </text>
  </g>
  <g id="Fructose-2_x2C_6-bisphosphate">
    <path fill="none" stroke="#AC57B3" stroke-width="3" d="M23.2 316.7c0 2.8 2.2 5 5 5h133.7c2.8 0 5-2.2 5-5v-13c0-2.8-2.2-5-5-5H28.2c-2.8 0-5 2.2-5 5V316.7z"/>
    <path fill="#FFFFFF" d="M23.2 316.7c0 2.8 2.2 5 5 5h133.7c2.8 0 5-2.2 5-5v-13c0-2.8-2.2-5-5-5H28.2c-2.8 0-5 2.2-5 5V316.7z"/>
    <text transform="matrix(1 0 0 1 28.1978 313.7188)" font-family="'MyriadPro-Regular'" font-size="12">
      Fructose-2,6-bisphosphate
    </text>
  </g>
  <g id="Phosphoglycerate_kinase">
    <path fill="none" stroke="#BC9546" stroke-width="3" d="M211 491.8c0 2.8 2.2 5 5 5h124.9c2.8 0 5-2.2 5-5v-13c0-2.8-2.2-5-5-5H216c-2.8 0-5 2.2-5 5V491.8z"/>
    <path fill="#FFFFFF" d="M211 491.8c0 2.8 2.2 5 5 5h124.9c2.8 0 5-2.2 5-5v-13c0-2.8-2.2-5-5-5H216c-2.8 0-5 2.2-5 5V491.8z"/>
    <text transform="matrix(1 0 0 1 215.9907 488.8472)" font-family="'MyriadPro-Regular'" font-size="12">
      Phosphoglycerate kinase
    </text>
  </g>
  <g id="ATP">
    <path fill="none" stroke="#AC57B3" stroke-width="3" d="M407.5 667.4c0 2.8 2.2 5 5 5h19.7c2.8 0 5-2.2 5-5v-13c0-2.8-2.2-5-5-5h-19.7c-2.8 0-5 2.2-5 5V667.4z"/>
    <path fill="#FFFFFF" d="M407.5 667.4c0 2.8 2.2 5 5 5h19.7c2.8 0 5-2.2 5-5v-13c0-2.8-2.2-5-5-5h-19.7c-2.8 0-5 2.2-5 5V667.4z"/>
    <text transform="matrix(1 0 0 1 412.5435 664.3892)" font-family="'MyriadPro-Regular'" font-size="12">
      ATP
    </text>
  </g>
  <g id="Alanine">
    <path fill="none" stroke="#AC57B3" stroke-width="3" d="M398.3 716.1c0 2.8 2.2 5 5 5h38.1c2.8 0 5-2.2 5-5v-13c0-2.8-2.2-5-5-5h-38.1c-2.8 0-5 2.2-5 5V716.1z"/>
    <path fill="#FFFFFF" d="M398.3 716.1c0 2.8 2.2 5 5 5h38.1c2.8 0 5-2.2 5-5v-13c0-2.8-2.2-5-5-5h-38.1c-2.8 0-5 2.2-5 5V716.1z"/>
    <text transform="matrix(1 0 0 1 403.3398 713.0562)" font-family="'MyriadPro-Regular'" font-size="12">
      Alanine
    </text>
  </g>
  <g id="von_Gierke_x2019_s">
    <path fill="none" stroke="#8AC1A0" stroke-width="3" d="M355.9 161.6c0 2.8 2.2 5 5 5h60.9c2.8 0 5-2.2 5-5v-13c0-2.8-2.2-5-5-5h-60.9c-2.8 0-5 2.2-5 5V161.6z"/>
    <path fill="#FFFFFF" d="M355.9 161.6c0 2.8 2.2 5 5 5h60.9c2.8 0 5-2.2 5-5v-13c0-2.8-2.2-5-5-5h-60.9c-2.8 0-5 2.2-5 5V161.6z"/>
    <text transform="matrix(1 0 0 1 360.9204 158.6353)" font-family="'MyriadPro-Regular'" font-size="12">
      von Gierke’s
    </text>
  </g>
</svg>