<svg xmlns="http://www.w3.org/2000/svg" xmlns:xlink="http://www.w3.org/1999/xlink" version="1.1" x="0" y="0" viewBox="0 0 629.3 536.3" enable-background="new 0 0 629.3 536.3" xml:space="preserve">
  <g id="Layer_59">
    <path fill="none" stroke="#000000" stroke-width="2" stroke-miterlimit="10" d="M358.8 156.8c-21-9.1-44.1-14.1-68.5-14.1 -31 0-60 8.2-85.2 22.4"/>
    <polygon points="355.8 146.7 354 147.5 358.1 156.5 348.8 159.9 349.5 161.8 360.8 157.6 "/>
  </g>
  <g id="Layer_58">
    <path fill="none" stroke="#000000" stroke-width="2" stroke-miterlimit="10" d="M415.9 196.8c-3.8-4-7.7-7.8-11.9-11.4"/>
    <polygon points="417.1 186.3 415.1 186.4 415.3 196.2 405.4 195.8 405.3 197.7 417.3 198.4 "/>
  </g>
  <g id="Layer_57">
    <path fill="none" stroke="#000000" stroke-width="2" stroke-miterlimit="10" d="M444.9 238.2c-1.4-2.8-2.9-5.5-4.4-8.3"/>
    <polygon points="446.9 233.4 445.9 233.1 444.6 237.9 440 236.3 439.7 237.2 445.3 239.2 "/>
  </g>
  <g id="Layer_56">
    <path fill="none" stroke="#000000" stroke-width="2" stroke-miterlimit="10" d="M458.6 354.2c2.9-12.5 4.4-25.5 4.4-38.9 0-14.7-1.8-29-5.3-42.7"/>
    <polygon points="467.9 349.4 466.8 347.8 458.7 353.4 453.6 345 451.9 346 458.1 356.3 "/>
  </g>
  <g id="Layer_55">
    <path fill="none" stroke="#000000" stroke-width="2" stroke-miterlimit="10" d="M335.1 482.1c49.1-13.2 89.6-47.4 111.1-92.5"/>
    <polygon points="343.7 488.2 344.6 486.4 335.8 481.9 340.9 473.5 339.2 472.4 333 482.7 "/>
  </g>
  <g id="Layer_54">
    <path fill="none" stroke="#000000" stroke-width="2" stroke-miterlimit="10" d="M168.1 437.3c21.9 21.9 49.6 38 80.6 45.6"/>
    <polygon points="167.3 447.7 169.3 447.6 168.7 437.8 178.6 437.9 178.6 435.9 166.6 435.7 "/>
  </g>
  <g id="Layer_53">
    <path fill="none" stroke="#000000" stroke-width="2" stroke-miterlimit="10" d="M119.2 338.7c3.1 22.8 10.6 44.3 21.7 63.4"/>
    <polygon points="112.2 346.4 113.8 347.5 119.4 339.4 127.1 345.6 128.3 344 118.9 336.5 "/>
  </g>
  <g id="Layer_52">
    <path fill="none" stroke="#000000" stroke-width="2" stroke-miterlimit="10" d="M123.6 270.3c-2.8 10.5-4.7 21.3-5.5 32.4"/>
    <polygon points="114.1 274.7 115.2 276.3 123.5 271 128.2 279.7 129.9 278.7 124.2 268.2 "/>
  </g>
  <g id="Layer_51">
    <path fill="none" stroke="#000000" stroke-width="2" stroke-miterlimit="10" d="M161.9 200c-8.9 9.9-16.7 20.8-23.1 32.6"/>
    <polygon points="151.4 199.6 151.6 201.6 161.4 200.6 161.7 210.4 163.7 210.4 163.3 198.4 "/>
  </g>
  <g id="Layer_50">
    <line fill="none" stroke="#000000" stroke-width="2" stroke-miterlimit="10" x1="290" y1="45.3" x2="290" y2="86.3"/>
    <polygon points="283.9 81.7 285 80.7 290 86.1 295 80.7 296.1 81.7 290 88.3 "/>
  </g>
  <g id="Layer_49">
    <line fill="none" stroke="#000000" stroke-width="2" stroke-miterlimit="10" x1="353.7" y1="45.3" x2="312.6" y2="54.5"/>
    <rect x="311.6" y="47.9" transform="matrix(-0.9762 0.217 -0.217 -0.9762 629.651 39.7569)" width="2" height="13"/>
  </g>
  <g id="Layer_48">
    <line fill="none" stroke="#000000" stroke-width="2" stroke-miterlimit="10" x1="348.3" y1="85.3" x2="312.6" y2="74.3"/>
    <rect x="311.6" y="67.8" transform="matrix(-0.9554 -0.2952 0.2952 -0.9554 589.3796 237.5661)" width="2" height="13"/>
  </g>
  <g id="Layer_47">
    <path fill="none" stroke="#000000" stroke-width="2" stroke-miterlimit="10" d="M267.3 62.9c-21.7 0.1-24.3 4.4-29 16.7 -4.8 12.5-2.8 22.4 12.7 28.4"/>
    <rect x="266.3" y="56.5" transform="matrix(0.9996 -2.734020e-02 2.734020e-02 0.9996 -1.6217 7.3327)" width="2" height="13"/>
  </g>
  <g id="Layer_46">
    <path fill="none" stroke="#000000" stroke-width="2" stroke-miterlimit="10" d="M138.8 232.5c0-18.4-22.3-33.4-50.3-34.2"/>
    <polygon points="95.5 190.6 96.8 192.2 89.3 198.5 96.1 205.6 94.7 207 86.3 198.4 "/>
  </g>
  <g id="Layer_45">
    <path fill="none" stroke="#000000" stroke-width="2" stroke-miterlimit="10" d="M141 402c-16.4-25.4-24.1-31.1-52.5-31.3"/>
    <polygon points="95.3 362.7 96.7 364.2 89.3 370.7 96.3 377.7 94.9 379.1 86.3 370.7 "/>
  </g>
  <g id="Layer_44">
    <path fill="none" stroke="#000000" stroke-width="2" stroke-miterlimit="10" d="M248.7 482.9c0-0.1-66.4-0.2-148.8-0.2"/>
    <polygon points="106.5 474.5 107.8 476 100.6 482.7 107.8 489.4 106.5 490.9 97.7 482.7 "/>
  </g>
  <g id="Layer_43">
    <path fill="none" stroke="#000000" stroke-width="2" stroke-miterlimit="10" d="M463 315.3c0 23.8 27.8 43.2 62.5 44"/>
    <polygon points="518.5 367.1 517.2 365.6 524.7 359.2 517.8 352.2 519.2 350.8 527.7 359.3 "/>
  </g>
  <g id="Layer_42">
    <path fill="none" stroke="#000000" stroke-width="2" stroke-miterlimit="10" d="M406.3 485.8c0.3-29.4 5.6-46.2 11-53.5"/>
    <polygon points="414.7 479.4 413.3 478 406.4 485.1 399.9 477.7 398.4 479 406.3 488 "/>
  </g>
  <g id="Layer_41">
    <path fill="none" stroke="#000000" stroke-width="2" stroke-miterlimit="10" d="M290 123c5.8 14.4 45.4 23.3 68.3 33.7"/>
    <polygon points="348.9 161.7 348.3 159.8 357.6 156.5 353.6 147.5 355.4 146.7 360.2 157.6 "/>
  </g>
  <g id="Layer_40">
    <line fill="none" stroke="#000000" stroke-width="2" stroke-miterlimit="10" x1="499.7" y1="428.3" x2="458.6" y2="437.5"/>
    <rect x="457.6" y="430.9" transform="matrix(-0.9762 0.2171 -0.2171 -0.9762 1001.3022 764.9181)" width="2" height="13"/>
  </g>
  <g id="Layer_39">
    <line fill="none" stroke="#000000" stroke-width="2" stroke-miterlimit="10" x1="494.3" y1="468.3" x2="458.6" y2="457.3"/>
    <rect x="457.6" y="450.8" transform="matrix(-0.9554 -0.2954 0.2954 -0.9554 761.7175 1029.6458)" width="2" height="13"/>
  </g>
  <g id="Layer_38">
    <line fill="none" stroke="#000000" stroke-width="2" stroke-miterlimit="10" x1="290" y1="198.3" x2="290" y2="163.3"/>
    <rect x="283" y="162.3" width="13" height="2"/>
  </g>
  <g id="Layer_37">
    <line fill="none" stroke="#000000" stroke-width="2" stroke-miterlimit="10" x1="277" y1="376.3" x2="277" y2="466.3"/>
    <polygon points="268.8 459.5 270.3 458.2 277 465.4 283.7 458.2 285.2 459.5 277 468.3 "/>
  </g>
  <g id="Layer_36">
    <line fill="none" stroke="#000000" stroke-width="2" stroke-miterlimit="10" x1="558.7" y1="279.3" x2="514.2" y2="299.3"/>
    <rect x="513.2" y="292.8" transform="matrix(-0.9124 0.4093 -0.4093 -0.9124 1105.9364 361.817)" width="2" height="13"/>
  </g>
  <g id="Layer_35">
    <line fill="none" stroke="#000000" stroke-width="2" stroke-miterlimit="10" x1="553.3" y1="315.3" x2="514.3" y2="321.2"/>
    <rect x="513.3" y="314.7" transform="matrix(-0.989 0.1482 -0.1482 -0.989 1070.5757 562.5875)" width="2" height="13"/>
  </g>
  <g id="Layer_34">
    <line fill="none" stroke="#000000" stroke-width="2" stroke-miterlimit="10" x1="355" y1="318.3" x2="403" y2="318.3"/>
    <polygon fill="#FFFFFF" points="412 324.3 402 318.3 412 312.3 "/>
    <path d="M413 325.3l-11.8-7 11.8-7V325.3zM403.7 318.3l8.3 4.9v-9.9L403.7 318.3z"/>
  </g>
  <g id="Layer_33">
    <path fill="none" stroke="#000000" stroke-width="2" stroke-miterlimit="10" d="M309.3 468.3c0-12 19.9-21.7 44.7-22"/>
    <rect x="353" y="439.9" transform="matrix(0.9997 -2.441275e-02 2.441275e-02 0.9997 -10.7913 8.7751)" width="2" height="13"/>
  </g>
  <g id="Pyruvate">
    <path fill="none" stroke="#87C94E" stroke-width="3" d="M263.3 36.3c0 2.8 2.2 5 5 5h44.1c2.8 0 5-2.2 5-5v-13c0-2.8-2.2-5-5-5h-44.1c-2.8 0-5 2.2-5 5V36.3z"/>
    <path fill="#FFFFFF" d="M263.3 36.3c0 2.8 2.2 5 5 5h44.1c2.8 0 5-2.2 5-5v-13c0-2.8-2.2-5-5-5h-44.1c-2.8 0-5 2.2-5 5V36.3z"/>
    <text transform="matrix(1 0 0 1 268.2778 33.3325)" font-family="'MyriadPro-Regular'" font-size="12">
      Pyruvate
    </text>
  </g>
  <g id="PDH">
    <path fill="none" stroke="#BC9546" stroke-width="3" d="M274.2 69.7c0 2.8 2.2 5 5 5h22.2c2.8 0 5-2.2 5-5v-13c0-2.8-2.2-5-5-5h-22.2c-2.8 0-5 2.2-5 5V69.7z"/>
    <path fill="#FFFFFF" d="M274.2 69.7c0 2.8 2.2 5 5 5h22.2c2.8 0 5-2.2 5-5v-13c0-2.8-2.2-5-5-5h-22.2c-2.8 0-5 2.2-5 5V69.7z"/>
    <text transform="matrix(1 0 0 1 279.2339 66.6665)" font-family="'MyriadPro-Regular'" font-size="12">
      PDH
    </text>
  </g>
  <g id="Acetyl-CoA">
    <path fill="none" stroke="#9092BA" stroke-width="3" d="M257.5 113c0 2.8 2.2 5 5 5h55.8c2.8 0 5-2.2 5-5v-13c0-2.8-2.2-5-5-5h-55.8c-2.8 0-5 2.2-5 5V113z"/>
    <path fill="#FFFFFF" d="M257.5 113c0 2.8 2.2 5 5 5h55.8c2.8 0 5-2.2 5-5v-13c0-2.8-2.2-5-5-5h-55.8c-2.8 0-5 2.2-5 5V113z"/>
    <text transform="matrix(1 0 0 1 262.4517 110.0005)" font-family="'MyriadPro-Regular'" font-size="12">
      Acetyl-CoA
    </text>
  </g>
  <g id="Citrate_synthase">
    <path fill="none" stroke="#BC9546" stroke-width="3" d="M245.2 151c0 2.8 2.2 5 5 5h80.2c2.8 0 5-2.2 5-5v-13c0-2.8-2.2-5-5-5h-80.2c-2.8 0-5 2.2-5 5V151z"/>
    <path fill="#FFFFFF" d="M245.2 151c0 2.8 2.2 5 5 5h80.2c2.8 0 5-2.2 5-5v-13c0-2.8-2.2-5-5-5h-80.2c-2.8 0-5 2.2-5 5V151z"/>
    <text transform="matrix(1 0 0 1 250.2241 148.0005)" font-family="'MyriadPro-Regular'" font-size="12">
      Citrate synthase
    </text>
  </g>
  <g id="Citrate">
    <path fill="none" stroke="#9092BA" stroke-width="3" d="M366.6 175.7c0 2.8 2.2 5 5 5H405c2.8 0 5-2.2 5-5v-13c0-2.8-2.2-5-5-5h-33.4c-2.8 0-5 2.2-5 5V175.7z"/>
    <path fill="#FFFFFF" d="M366.6 175.7c0 2.8 2.2 5 5 5H405c2.8 0 5-2.2 5-5v-13c0-2.8-2.2-5-5-5h-33.4c-2.8 0-5 2.2-5 5V175.7z"/>
    <text transform="matrix(1 0 0 1 371.6172 172.6675)" font-family="'MyriadPro-Regular'" font-size="12">
      Citrate
    </text>
  </g>
  <g id="cis-Aconitate">
    <path fill="none" stroke="#9092BA" stroke-width="3" d="M394.1 220.3c0 2.8 2.2 5 5 5h65.1c2.8 0 5-2.2 5-5v-13c0-2.8-2.2-5-5-5h-65.1c-2.8 0-5 2.2-5 5V220.3z"/>
    <path fill="#FFFFFF" d="M394.1 220.3c0 2.8 2.2 5 5 5h65.1c2.8 0 5-2.2 5-5v-13c0-2.8-2.2-5-5-5h-65.1c-2.8 0-5 2.2-5 5V220.3z"/>
    <text transform="matrix(1 0 0 1 399.0996 217.334)" font-family="'MyriadPro-Regular'" font-size="12">
      cis-Aconitate
    </text>
  </g>
  <g id="Isocitrate">
    <path fill="none" stroke="#9092BA" stroke-width="3" d="M422.3 261c0 2.8 2.2 5 5 5h46.1c2.8 0 5-2.2 5-5v-13c0-2.8-2.2-5-5-5h-46.1c-2.8 0-5 2.2-5 5V261z"/>
    <path fill="#FFFFFF" d="M422.3 261c0 2.8 2.2 5 5 5h46.1c2.8 0 5-2.2 5-5v-13c0-2.8-2.2-5-5-5h-46.1c-2.8 0-5 2.2-5 5V261z"/>
    <text transform="matrix(1 0 0 1 427.3066 258.001)" font-family="'MyriadPro-Regular'" font-size="12">
      Isocitrate
    </text>
  </g>
  <g id="CO2__x2B__NADH_1_">
    <path fill="none" stroke="#C24F4D" stroke-width="3" d="M533 365.7c0 2.8 2.2 5 5 5h64.7c2.8 0 5-2.2 5-5v-13c0-2.8-2.2-5-5-5H538c-2.8 0-5 2.2-5 5V365.7z"/>
    <path fill="#FFFFFF" d="M533 365.7c0 2.8 2.2 5 5 5h64.7c2.8 0 5-2.2 5-5v-13c0-2.8-2.2-5-5-5H538c-2.8 0-5 2.2-5 5V365.7z"/>
    <text transform="matrix(1 0 0 1 537.9922 362.6675)" font-family="'MyriadPro-Regular'" font-size="12">
      CO2 + NADH
    </text>
  </g>
  <g id="Isocitrate_x0D_dehydrogenase">
    <path fill="none" stroke="#BC9546" stroke-width="3" d="M418.9 332.7c0 2.8 2.2 5 5 5h78.3c2.8 0 5-2.2 5-5v-27.4c0-2.8-2.2-5-5-5h-78.3c-2.8 0-5 2.2-5 5V332.7z"/>
    <path fill="#FFFFFF" d="M418.9 332.7c0 2.8 2.2 5 5 5h78.3c2.8 0 5-2.2 5-5v-27.4c0-2.8-2.2-5-5-5h-78.3c-2.8 0-5 2.2-5 5V332.7z"/>
    <text transform="matrix(1 0 0 1 439.9727 315.334)">
      <tspan x="0" y="0" font-family="'MyriadPro-Regular'" font-size="12">
        Isocitrate
      </tspan>
      <tspan x="-16.1" y="14.4" font-family="'MyriadPro-Regular'" font-size="12">
        dehydrogenase
      </tspan>
    </text>
  </g>
  <g id="ATP_3_">
    <path fill="none" stroke="#AC57B3" stroke-width="3" d="M361.5 50c0 2.8 2.2 5 5 5h19.7c2.8 0 5-2.2 5-5V37c0-2.8-2.2-5-5-5h-19.7c-2.8 0-5 2.2-5 5V50z"/>
    <path fill="#FFFFFF" d="M361.5 50c0 2.8 2.2 5 5 5h19.7c2.8 0 5-2.2 5-5V37c0-2.8-2.2-5-5-5h-19.7c-2.8 0-5 2.2-5 5V50z"/>
    <text transform="matrix(1 0 0 1 366.4868 46.9995)" font-family="'MyriadPro-Regular'" font-size="12">
      ATP
    </text>
  </g>
  <g id="NADH_3_">
    <path fill="none" stroke="#AC57B3" stroke-width="3" d="M355.8 94.3c0 2.8 2.2 5 5 5h31.1c2.8 0 5-2.2 5-5v-13c0-2.8-2.2-5-5-5h-31.1c-2.8 0-5 2.2-5 5V94.3z"/>
    <path fill="#FFFFFF" d="M355.8 94.3c0 2.8 2.2 5 5 5h31.1c2.8 0 5-2.2 5-5v-13c0-2.8-2.2-5-5-5h-31.1c-2.8 0-5 2.2-5 5V94.3z"/>
    <text transform="matrix(1 0 0 1 360.8057 91.333)" font-family="'MyriadPro-Regular'" font-size="12">
      NADH
    </text>
  </g>
  <g id="ATP_2_">
    <path fill="none" stroke="#AC57B3" stroke-width="3" d="M275.5 223c0 2.8 2.2 5 5 5h19.7c2.8 0 5-2.2 5-5v-13c0-2.8-2.2-5-5-5h-19.7c-2.8 0-5 2.2-5 5V223z"/>
    <path fill="#FFFFFF" d="M275.5 223c0 2.8 2.2 5 5 5h19.7c2.8 0 5-2.2 5-5v-13c0-2.8-2.2-5-5-5h-19.7c-2.8 0-5 2.2-5 5V223z"/>
    <text transform="matrix(1 0 0 1 280.4878 220.0005)" font-family="'MyriadPro-Regular'" font-size="12">
      ATP
    </text>
  </g>
  <g id="ADH">
    <path fill="none" stroke="#AC57B3" stroke-width="3" d="M316.4 324.3c0 2.8 2.2 5 5 5h23.2c2.8 0 5-2.2 5-5v-13c0-2.8-2.2-5-5-5h-23.2c-2.8 0-5 2.2-5 5V324.3z"/>
    <path fill="#FFFFFF" d="M316.4 324.3c0 2.8 2.2 5 5 5h23.2c2.8 0 5-2.2 5-5v-13c0-2.8-2.2-5-5-5h-23.2c-2.8 0-5 2.2-5 5V324.3z"/>
    <text transform="matrix(1 0 0 1 321.4219 321.333)" font-family="'MyriadPro-Regular'" font-size="12">
      ADH
    </text>
  </g>
  <g id="α-ketoglutarate">
    <path fill="none" stroke="#9092BA" stroke-width="3" d="M406.3 379c0 2.8 2.2 5 5 5h78.1c2.8 0 5-2.2 5-5v-13c0-2.8-2.2-5-5-5h-78.1c-2.8 0-5 2.2-5 5V379z"/>
    <path fill="#FFFFFF" d="M406.3 379c0 2.8 2.2 5 5 5h78.1c2.8 0 5-2.2 5-5v-13c0-2.8-2.2-5-5-5h-78.1c-2.8 0-5 2.2-5 5V379z"/>
    <text transform="matrix(1 0 0 1 411.2871 376.0005)" font-family="'MyriadPro-Regular'" font-size="12">
      α-ketoglutarate
    </text>
  </g>
  <g id="α-ketoglutarate_x0D_dehydrogenase">
    <path fill="none" stroke="#BC9546" stroke-width="3" d="M362.2 458.7c0 2.8 2.2 5 5 5h78.3c2.8 0 5-2.2 5-5v-27.4c0-2.8-2.2-5-5-5h-78.3c-2.8 0-5 2.2-5 5V458.7z"/>
    <path fill="#FFFFFF" d="M362.2 458.7c0 2.8 2.2 5 5 5h78.3c2.8 0 5-2.2 5-5v-27.4c0-2.8-2.2-5-5-5h-78.3c-2.8 0-5 2.2-5 5V458.7z"/>
    <text transform="matrix(1 0 0 1 367.2861 441.334)">
      <tspan x="0" y="0" font-family="'MyriadPro-Regular'" font-size="12">
        α-ketoglutarate
      </tspan>
      <tspan x="-0.1" y="14.4" font-family="'MyriadPro-Regular'" font-size="12">
        dehydrogenase
      </tspan>
    </text>
  </g>
  <g id="CO2__x2B__NADH">
    <path fill="none" stroke="#C24F4D" stroke-width="3" d="M369 513.3c0 2.8 2.2 5 5 5h64.7c2.8 0 5-2.2 5-5v-13c0-2.8-2.2-5-5-5H374c-2.8 0-5 2.2-5 5V513.3z"/>
    <path fill="#FFFFFF" d="M369 513.3c0 2.8 2.2 5 5 5h64.7c2.8 0 5-2.2 5-5v-13c0-2.8-2.2-5-5-5H374c-2.8 0-5 2.2-5 5V513.3z"/>
    <text transform="matrix(1 0 0 1 373.9941 510.334)" font-family="'MyriadPro-Regular'" font-size="12">
      CO2 + NADH
    </text>
  </g>
  <g id="Succinyl-CoA">
    <path fill="none" stroke="#9092BA" stroke-width="3" d="M252.4 491c0 2.8 2.2 5 5 5h65.8c2.8 0 5-2.2 5-5v-13c0-2.8-2.2-5-5-5h-65.8c-2.8 0-5 2.2-5 5V491z"/>
    <path fill="#FFFFFF" d="M252.4 491c0 2.8 2.2 5 5 5h65.8c2.8 0 5-2.2 5-5v-13c0-2.8-2.2-5-5-5h-65.8c-2.8 0-5 2.2-5 5V491z"/>
    <text transform="matrix(1 0 0 1 257.4297 488.002)" font-family="'MyriadPro-Regular'" font-size="12">
      Succinyl-CoA
    </text>
  </g>
  <g id="Succinate">
    <path fill="none" stroke="#9092BA" stroke-width="3" d="M122.1 426.7c0 2.8 2.2 5 5 5h48.5c2.8 0 5-2.2 5-5v-13c0-2.8-2.2-5-5-5h-48.5c-2.8 0-5 2.2-5 5V426.7z"/>
    <path fill="#FFFFFF" d="M122.1 426.7c0 2.8 2.2 5 5 5h48.5c2.8 0 5-2.2 5-5v-13c0-2.8-2.2-5-5-5h-48.5c-2.8 0-5 2.2-5 5V426.7z"/>
    <text transform="matrix(1 0 0 1 127.0752 423.6675)" font-family="'MyriadPro-Regular'" font-size="12">
      Succinate
    </text>
  </g>
  <g id="GTP__x2B__CoA">
    <path fill="none" stroke="#C24F4D" stroke-width="3" d="M28.1 491c0 2.8 2.2 5 5 5h53.2c2.8 0 5-2.2 5-5v-13c0-2.8-2.2-5-5-5H33.1c-2.8 0-5 2.2-5 5V491z"/>
    <path fill="#FFFFFF" d="M28.1 491c0 2.8 2.2 5 5 5h53.2c2.8 0 5-2.2 5-5v-13c0-2.8-2.2-5-5-5H33.1c-2.8 0-5 2.2-5 5V491z"/>
    <text transform="matrix(1 0 0 1 33.0513 488.002)" font-family="'MyriadPro-Regular'" font-size="12">
      GTP + CoA
    </text>
  </g>
  <g id="Fumarate">
    <path fill="none" stroke="#9092BA" stroke-width="3" d="M88.7 326.2c0 2.8 2.2 5 5 5h47.9c2.8 0 5-2.2 5-5v-13c0-2.8-2.2-5-5-5H93.7c-2.8 0-5 2.2-5 5V326.2z"/>
    <path fill="#FFFFFF" d="M88.7 326.2c0 2.8 2.2 5 5 5h47.9c2.8 0 5-2.2 5-5v-13c0-2.8-2.2-5-5-5H93.7c-2.8 0-5 2.2-5 5V326.2z"/>
    <text transform="matrix(1 0 0 1 93.6963 323.167)" font-family="'MyriadPro-Regular'" font-size="12">
      Fumarate
    </text>
  </g>
  <g id="FADH2">
    <path fill="none" stroke="#C24F4D" stroke-width="3" d="M37.1 379c0 2.8 2.2 5 5 5h35.2c2.8 0 5-2.2 5-5v-13c0-2.8-2.2-5-5-5H42.1c-2.8 0-5 2.2-5 5V379z"/>
    <path fill="#FFFFFF" d="M37.1 379c0 2.8 2.2 5 5 5h35.2c2.8 0 5-2.2 5-5v-13c0-2.8-2.2-5-5-5H42.1c-2.8 0-5 2.2-5 5V379z"/>
    <text transform="matrix(1 0 0 1 42.0874 376.0005)" font-family="'MyriadPro-Regular'" font-size="12">
      FADH2
    </text>
  </g>
  <g id="Malate">
    <path fill="none" stroke="#9092BA" stroke-width="3" d="M107.7 256c0 2.8 2.2 5 5 5h34c2.8 0 5-2.2 5-5v-13c0-2.8-2.2-5-5-5h-34c-2.8 0-5 2.2-5 5V256z"/>
    <path fill="#FFFFFF" d="M107.7 256c0 2.8 2.2 5 5 5h34c2.8 0 5-2.2 5-5v-13c0-2.8-2.2-5-5-5h-34c-2.8 0-5 2.2-5 5V256z"/>
    <text transform="matrix(1 0 0 1 112.6514 253.0005)" font-family="'MyriadPro-Regular'" font-size="12">
      Malate
    </text>
  </g>
  <g id="Oxaloacetate">
    <path fill="none" stroke="#9092BA" stroke-width="3" d="M141 188.3c0 2.8 2.2 5 5 5H212c2.8 0 5-2.2 5-5v-13c0-2.8-2.2-5-5-5H146c-2.8 0-5 2.2-5 5V188.3z"/>
    <path fill="#FFFFFF" d="M141 188.3c0 2.8 2.2 5 5 5H212c2.8 0 5-2.2 5-5v-13c0-2.8-2.2-5-5-5H146c-2.8 0-5 2.2-5 5V188.3z"/>
    <text transform="matrix(1 0 0 1 146.0303 185.334)" font-family="'MyriadPro-Regular'" font-size="12">
      Oxaloacetate
    </text>
  </g>
  <g id="NADH_2_">
    <path fill="none" stroke="#C24F4D" stroke-width="3" d="M39.1 204.3c0 2.8 2.2 5 5 5h31.1c2.8 0 5-2.2 5-5v-13c0-2.8-2.2-5-5-5H44.1c-2.8 0-5 2.2-5 5V204.3z"/>
    <path fill="#FFFFFF" d="M39.1 204.3c0 2.8 2.2 5 5 5h31.1c2.8 0 5-2.2 5-5v-13c0-2.8-2.2-5-5-5H44.1c-2.8 0-5 2.2-5 5V204.3z"/>
    <text transform="matrix(1 0 0 1 44.1392 201.334)" font-family="'MyriadPro-Regular'" font-size="12">
      NADH
    </text>
  </g>
  <g id="B1_x0D_B2_x0D_B3_x0D_B5">
    <path fill="none" stroke="#AC57B3" stroke-width="3" d="M265.3 445.9c0 2.8 2.2 5 5 5H283c2.8 0 5-2.2 5-5v-56.2c0-2.8-2.2-5-5-5h-12.7c-2.8 0-5 2.2-5 5V445.9z"/>
    <path fill="#FFFFFF" d="M265.3 445.9c0 2.8 2.2 5 5 5H283c2.8 0 5-2.2 5-5v-56.2c0-2.8-2.2-5-5-5h-12.7c-2.8 0-5 2.2-5 5V445.9z"/>
    <text transform="matrix(1 0 0 1 270.3359 399.6675)">
      <tspan x="0" y="0" font-family="'MyriadPro-Regular'" font-size="12">
        B1
      </tspan>
      <tspan x="0" y="14.4" font-family="'MyriadPro-Regular'" font-size="12">
        B2
      </tspan>
      <tspan x="0" y="28.8" font-family="'MyriadPro-Regular'" font-size="12">
        B3
      </tspan>
      <tspan x="0" y="43.2" font-family="'MyriadPro-Regular'" font-size="12">
        B5
      </tspan>
    </text>
  </g>
  <g id="Lipoic_acid">
    <path fill="none" stroke="#AC57B3" stroke-width="3" d="M245 363.7c0 2.8 2.2 5 5 5h53.4c2.8 0 5-2.2 5-5v-13c0-2.8-2.2-5-5-5H250c-2.8 0-5 2.2-5 5V363.7z"/>
    <path fill="#FFFFFF" d="M245 363.7c0 2.8 2.2 5 5 5h53.4c2.8 0 5-2.2 5-5v-13c0-2.8-2.2-5-5-5H250c-2.8 0-5 2.2-5 5V363.7z"/>
    <text transform="matrix(1 0 0 1 249.9907 360.6675)" font-family="'MyriadPro-Regular'" font-size="12">
      Lipoic acid
    </text>
  </g>
  <g id="ATP_1_">
    <path fill="none" stroke="#AC57B3" stroke-width="3" d="M507.5 433c0 2.8 2.2 5 5 5h19.7c2.8 0 5-2.2 5-5v-13c0-2.8-2.2-5-5-5h-19.7c-2.8 0-5 2.2-5 5V433z"/>
    <path fill="#FFFFFF" d="M507.5 433c0 2.8 2.2 5 5 5h19.7c2.8 0 5-2.2 5-5v-13c0-2.8-2.2-5-5-5h-19.7c-2.8 0-5 2.2-5 5V433z"/>
    <text transform="matrix(1 0 0 1 512.4863 429.9995)" font-family="'MyriadPro-Regular'" font-size="12">
      ATP
    </text>
  </g>
  <g id="NADH_1_">
    <path fill="none" stroke="#AC57B3" stroke-width="3" d="M501.8 477.3c0 2.8 2.2 5 5 5h31.1c2.8 0 5-2.2 5-5v-13c0-2.8-2.2-5-5-5h-31.1c-2.8 0-5 2.2-5 5V477.3z"/>
    <path fill="#FFFFFF" d="M501.8 477.3c0 2.8 2.2 5 5 5h31.1c2.8 0 5-2.2 5-5v-13c0-2.8-2.2-5-5-5h-31.1c-2.8 0-5 2.2-5 5V477.3z"/>
    <text transform="matrix(1 0 0 1 506.8057 474.333)" font-family="'MyriadPro-Regular'" font-size="12">
      NADH
    </text>
  </g>
  <g id="ATP">
    <path fill="none" stroke="#AC57B3" stroke-width="3" d="M566.5 284c0 2.8 2.2 5 5 5h19.7c2.8 0 5-2.2 5-5v-13c0-2.8-2.2-5-5-5h-19.7c-2.8 0-5 2.2-5 5V284z"/>
    <path fill="#FFFFFF" d="M566.5 284c0 2.8 2.2 5 5 5h19.7c2.8 0 5-2.2 5-5v-13c0-2.8-2.2-5-5-5h-19.7c-2.8 0-5 2.2-5 5V284z"/>
    <text transform="matrix(1 0 0 1 571.4863 280.9995)" font-family="'MyriadPro-Regular'" font-size="12">
      ATP
    </text>
  </g>
  <g id="NADH">
    <path fill="none" stroke="#AC57B3" stroke-width="3" d="M560.8 324.3c0 2.8 2.2 5 5 5h31.1c2.8 0 5-2.2 5-5v-13c0-2.8-2.2-5-5-5h-31.1c-2.8 0-5 2.2-5 5V324.3z"/>
    <path fill="#FFFFFF" d="M560.8 324.3c0 2.8 2.2 5 5 5h31.1c2.8 0 5-2.2 5-5v-13c0-2.8-2.2-5-5-5h-31.1c-2.8 0-5 2.2-5 5V324.3z"/>
    <text transform="matrix(1 0 0 1 565.8057 321.333)" font-family="'MyriadPro-Regular'" font-size="12">
      NADH
    </text>
  </g>
</svg>