<?xml version="1.0" encoding="utf-8"?>
<!-- Generator: Adobe Illustrator 16.0.4, SVG Export Plug-In . SVG Version: 6.00 Build 0)  -->
<!DOCTYPE svg PUBLIC "-//W3C//DTD SVG 1.1//EN" "http://www.w3.org/Graphics/SVG/1.1/DTD/svg11.dtd">
<svg version="1.1" xmlns="http://www.w3.org/2000/svg" xmlns:xlink="http://www.w3.org/1999/xlink" x="0px" y="0px" width="240px"
	 height="392px" viewBox="0 0 240 392" enable-background="new 0 0 240 392" xml:space="preserve">
<g id="Static">
</g>
<g id="Layer_30">
</g>
<g id="Layer_29">
</g>
<g id="Layer_28">
</g>
<g id="Layer_27">
</g>
<g id="Layer_26">
</g>
<g id="Layer_25">
</g>
<g id="Layer_24">
</g>
<g id="Layer_23">
</g>
<g id="Layer_22">
</g>
<g id="Layer_21">
</g>
<g id="Layer_20">
</g>
<g id="Ethanol">
</g>
<g id="Acetaldehyde">
</g>
<g id="Acetate">
</g>
<g id="Alcohol_Dehydrogenase">
</g>
<g id="Aldehyde_Dehydrogenase">
</g>
<g id="CYP2E1">
</g>
<g id="Catalase">
</g>
<g id="Fomepizole">
</g>
<g id="Layer_19">
</g>
<g id="Layer_18">
</g>
<g id="Layer_17">
</g>
<g id="Layer_16">
</g>
<g id="Layer_15">
</g>
<g id="Layer_14">
</g>
<g id="Layer_13">
</g>
<g id="Layer_12">
</g>
<g id="Layer_11">
</g>
<g id="Disulfiram">
	<g>
		<path fill="none" stroke="#87C94E" stroke-width="3" d="M18.177,43c0,2.761,2.239,5,5,5h82.355c2.761,0,5-2.239,5-5V29.956
			c0-2.761-2.239-5-5-5H23.177c-2.761,0-5,2.239-5,5V43z"/>
		<path fill="#FFFFFF" d="M18.177,43c0,2.761,2.239,5,5,5h82.355c2.761,0,5-2.239,5-5V29.956c0-2.761-2.239-5-5-5H23.177
			c-2.761,0-5,2.239-5,5V43z"/>
		<text transform="matrix(1 0 0 1 23.1772 40)" font-family="'MyriadPro-Regular'" font-size="12">Starting product</text>
	</g>
	<g>
		<path fill="none" stroke="#9092BA" stroke-width="3" d="M17.907,74.611c0,2.761,2.239,5,5,5h118.702c2.761,0,5-2.239,5-5V61.567
			c0-2.761-2.239-5-5-5H22.907c-2.761,0-5,2.239-5,5V74.611z"/>
		<path fill="#FFFFFF" d="M17.907,74.611c0,2.761,2.239,5,5,5h118.702c2.761,0,5-2.239,5-5V61.567c0-2.761-2.239-5-5-5H22.907
			c-2.761,0-5,2.239-5,5V74.611z"/>
		<text transform="matrix(1 0 0 1 22.9072 71.6113)" font-family="'MyriadPro-Regular'" font-size="12">Intermediate substrates</text>
	</g>
	<g>
		<path fill="none" stroke="#BC9546" stroke-width="3" d="M18.177,106.222c0,2.761,2.239,5,5,5h39.372c2.761,0,5-2.239,5-5V93.178
			c0-2.761-2.239-5-5-5H23.177c-2.761,0-5,2.239-5,5V106.222z"/>
		<path fill="#FFFFFF" d="M18.177,106.222c0,2.761,2.239,5,5,5h39.372c2.761,0,5-2.239,5-5V93.178c0-2.761-2.239-5-5-5H23.177
			c-2.761,0-5,2.239-5,5V106.222z"/>
		<text transform="matrix(1 0 0 1 23.1772 103.2222)" font-family="'MyriadPro-Regular'" font-size="12">Enzyme</text>
	</g>
	<g>
		<path fill="none" stroke="#C24F4D" stroke-width="3" d="M18.051,137.833c0,2.761,2.239,5,5,5h61.943c2.761,0,5-2.239,5-5V124.79
			c0-2.761-2.239-5-5-5H23.051c-2.761,0-5,2.239-5,5V137.833z"/>
		<path fill="#FFFFFF" d="M18.051,137.833c0,2.761,2.239,5,5,5h61.943c2.761,0,5-2.239,5-5V124.79c0-2.761-2.239-5-5-5H23.051
			c-2.761,0-5,2.239-5,5V137.833z"/>
		<text transform="matrix(1 0 0 1 23.0513 134.8335)" font-family="'MyriadPro-Regular'" font-size="12">End product</text>
	</g>
	<g>
		<path fill="none" stroke="#4D3E3A" stroke-width="3" d="M18.033,169.445c0,2.761,2.239,5,5,5h25.235c2.761,0,5-2.239,5-5v-13.044
			c0-2.761-2.239-5-5-5H23.033c-2.761,0-5,2.239-5,5V169.445z"/>
		<path fill="#FFFFFF" d="M18.033,169.445c0,2.761,2.239,5,5,5h25.235c2.761,0,5-2.239,5-5v-13.044c0-2.761-2.239-5-5-5H23.033
			c-2.761,0-5,2.239-5,5V169.445z"/>
		<text transform="matrix(1 0 0 1 23.0332 166.4448)" font-family="'MyriadPro-Regular'" font-size="12">Drug</text>
	</g>
	<g>
		<path fill="none" stroke="#AC57B3" stroke-width="3" d="M17.985,201.056c0,2.761,2.239,5,5,5h104.11c2.761,0,5-2.239,5-5v-13.044
			c0-2.761-2.239-5-5-5H22.985c-2.761,0-5,2.239-5,5V201.056z"/>
		<path fill="#FFFFFF" d="M17.985,201.056c0,2.761,2.239,5,5,5h104.11c2.761,0,5-2.239,5-5v-13.044c0-2.761-2.239-5-5-5H22.985
			c-2.761,0-5,2.239-5,5V201.056z"/>
		<text transform="matrix(1 0 0 1 22.9854 198.0557)" font-family="'MyriadPro-Regular'" font-size="12">Cofactor/byproducts</text>
	</g>
	<text transform="matrix(1 0 0 1 23.333 256.8003)" font-family="'MyriadPro-Regular'" font-size="12">Single reaction</text>
	<text transform="matrix(1 0 0 1 23.333 286.2671)" font-family="'MyriadPro-Regular'" font-size="12">Multiple reactions</text>
	<text transform="matrix(1 0 0 1 23.333 315.7334)" font-family="'MyriadPro-Regular'" font-size="12">Inhibition</text>
	<g>
		<g>
			
				<line fill="none" stroke="#000000" stroke-width="2" stroke-miterlimit="10" x1="107.667" y1="253.333" x2="219.667" y2="253.333"/>
			<g>
				<path d="M212.63,258.133c-0.148-0.232-0.08-0.542,0.153-0.69l6.453-4.109l-6.453-4.109c-0.233-0.148-0.302-0.458-0.153-0.69
					s0.459-0.3,0.69-0.153l7.115,4.531c0.144,0.092,0.231,0.251,0.231,0.422s-0.087,0.33-0.231,0.422l-7.115,4.531
					c-0.083,0.053-0.176,0.078-0.268,0.078C212.887,258.365,212.726,258.283,212.63,258.133z"/>
			</g>
		</g>
	</g>
	<g>
		<g>
			
				<line fill="none" stroke="#000000" stroke-width="2" stroke-miterlimit="10" x1="128.667" y1="282.333" x2="216.667" y2="282.333"/>
			<g>
				<polygon points="128.667,281.838 126.356,277.333 125.218,277.333 127.646,282.333 126.508,282.333 124.081,277.333 
					122.942,277.333 125.371,282.333 124.233,282.333 121.804,277.333 120.667,277.333 123.095,282.333 121.667,282.333 
					121.667,282.333 123.095,282.333 120.667,287.333 121.804,287.333 124.233,282.333 125.371,282.333 122.942,287.333 
					124.081,287.333 126.508,282.333 127.646,282.333 125.218,287.333 126.356,287.333 128.667,282.83 				"/>
			</g>
			<g>
				<path d="M215.405,277.333c1.249,2,3.193,3.711,5.262,5c-2.088,1.27-3.951,3-5.262,5h-1.248c1.31-2,2.885-3.689,4.831-5
					c-1.946-1.33-3.583-3-4.852-5H215.405z"/>
				<path d="M212.396,277.333c1.249,2,3.193,3.711,5.261,5c-2.088,1.27-3.95,3-5.261,5h-1.248c1.309-2,2.886-3.689,4.83-5
					c-1.944-1.33-3.582-3-4.851-5H212.396z"/>
			</g>
		</g>
	</g>
	<g>
		<g>
			
				<line fill="none" stroke="#000000" stroke-width="2" stroke-miterlimit="10" x1="80.667" y1="312.333" x2="219.667" y2="312.333"/>
			<g>
				<rect x="218.667" y="306.333" width="2" height="13"/>
			</g>
		</g>
	</g>
	<text transform="matrix(1 0 0 1 23.333 374.6675)" font-family="'MyriadPro-Regular'" font-size="12">Byproduct</text>
	<g>
		<g>
			
				<line fill="none" stroke="#000000" stroke-width="2" stroke-miterlimit="10" x1="86.667" y1="371.333" x2="87.667" y2="371.333"/>
			
				<line fill="none" stroke="#000000" stroke-width="2" stroke-miterlimit="10" stroke-dasharray="2,2" x1="89.667" y1="371.333" x2="217.667" y2="371.333"/>
			
				<line fill="none" stroke="#000000" stroke-width="2" stroke-miterlimit="10" x1="218.667" y1="371.333" x2="219.667" y2="371.333"/>
			<g>
				<polygon points="216.269,375.423 215.586,374.691 219.198,371.334 215.586,367.977 216.269,367.245 220.667,371.334 				"/>
			</g>
		</g>
	</g>
	<text transform="matrix(1 0 0 1 23.333 345.2007)" font-family="'MyriadPro-Regular'" font-size="12">Promotion</text>
	<g>
		<g>
			
				<line fill="none" stroke="#000000" stroke-width="2" stroke-miterlimit="10" x1="83.667" y1="341.333" x2="204.667" y2="341.333"/>
			<g>
				<g>
					<polygon fill="#FFFFFF" points="219.667,351.25 202.924,341.279 219.667,331.306 					"/>
					<path d="M220.667,353.009l-19.697-11.73l19.697-11.732V353.009z M204.879,341.279l13.787,8.211v-16.424L204.879,341.279z"/>
				</g>
			</g>
		</g>
	</g>
	<g>
		<path fill="none" stroke="#8AC1A0" stroke-width="3" d="M18.009,232.667c0,2.761,2.239,5,5,5h96.526c2.761,0,5-2.239,5-5v-13.044
			c0-2.761-2.239-5-5-5H23.009c-2.761,0-5,2.239-5,5V232.667z"/>
		<path fill="#FFFFFF" d="M18.009,232.667c0,2.761,2.239,5,5,5h96.526c2.761,0,5-2.239,5-5v-13.044c0-2.761-2.239-5-5-5H23.009
			c-2.761,0-5,2.239-5,5V232.667z"/>
		<text transform="matrix(1 0 0 1 23.0093 229.667)" font-family="'MyriadPro-Regular'" font-size="12">Disease association</text>
	</g>
</g>
</svg>
