<svg xmlns="http://www.w3.org/2000/svg" xmlns:xlink="http://www.w3.org/1999/xlink" version="1.1" x="0" y="0" viewBox="0 0 685 428" enable-background="new 0 0 685 428" xml:space="preserve">
  <g id="Layer_35">
    <line fill="none" stroke="#000000" stroke-width="2" stroke-miterlimit="10" x1="223.7" y1="86" x2="293.7" y2="86"/>
    <rect x="292.7" y="79" width="2" height="13"/>
  </g>
  <g id="Layer_34">
    <line fill="none" stroke="#000000" stroke-width="2" stroke-miterlimit="10" x1="91.7" y1="228" x2="91.7" y2="291"/>
    <polygon points="83.5 284.2 84.9 282.8 91.7 290.1 98.4 282.8 99.8 284.2 91.7 293 "/>
  </g>
  <g id="Layer_33">
    <line fill="none" stroke="#000000" stroke-width="2" stroke-miterlimit="10" x1="150.7" y1="313" x2="313.7" y2="313"/>
    <polygon points="306.9 321.2 305.5 319.7 312.7 313 305.5 306.3 306.9 304.8 315.7 313 "/>
  </g>
  <g id="Layer_32">
    <line fill="none" stroke="#000000" stroke-width="2" stroke-miterlimit="10" x1="557.7" y1="313" x2="389.7" y2="313"/>
    <polygon points="396.5 304.8 397.8 306.3 390.6 313 397.8 319.7 396.5 321.2 387.7 313 "/>
  </g>
  <g id="Layer_31">
    <line fill="none" stroke="#000000" stroke-width="2" stroke-miterlimit="10" x1="568.7" y1="189" x2="408.7" y2="189"/>
    <polygon points="415.5 180.8 416.8 182.3 409.6 189 416.8 195.7 415.5 197.2 406.7 189 "/>
  </g>
  <g id="Layer_30">
    <line fill="none" stroke="#000000" stroke-width="2" stroke-miterlimit="10" x1="231.7" y1="371" x2="231.7" y2="330"/>
    <rect x="224.7" y="329" width="13" height="2"/>
  </g>
  <g id="Layer_29">
    <line fill="none" stroke="#000000" stroke-width="2" stroke-miterlimit="10" x1="483.7" y1="371" x2="483.7" y2="330"/>
    <rect x="476.7" y="329" width="13" height="2"/>
  </g>
  <g id="Layer_28">
    <line fill="none" stroke="#000000" stroke-width="2" stroke-miterlimit="10" x1="483.7" y1="131" x2="483.7" y2="172"/>
    <rect x="476.7" y="171" width="13" height="2"/>
  </g>
  <g id="Layer_27">
    <line fill="none" stroke="#000000" stroke-width="2" stroke-miterlimit="10" x1="181.7" y1="251" x2="139.7" y2="251"/>
    <rect x="138.7" y="245" width="2" height="13"/>
  </g>
  <g id="Layer_26">
    <line fill="none" stroke="#000000" stroke-width="2" stroke-miterlimit="10" x1="452.7" y1="251" x2="412.7" y2="251"/>
    <rect x="411.7" y="245" width="2" height="13"/>
  </g>
  <g id="Layer_25">
    <line fill="none" stroke="#000000" stroke-width="2" stroke-miterlimit="10" x1="350.7" y1="60" x2="350.7" y2="123"/>
    <polygon points="342.5 116.2 343.9 114.8 350.7 122.1 357.4 114.8 358.8 116.2 350.7 125 "/>
  </g>
  <g id="Layer_24">
    <line fill="none" stroke="#000000" stroke-width="2" stroke-miterlimit="10" x1="350.7" y1="161" x2="350.7" y2="172"/>
    <polygon points="346.6 168.6 347.3 167.9 350.7 171.5 354 167.9 354.8 168.6 350.7 173 "/>
  </g>
  <g id="Layer_23">
    <line fill="none" stroke="#000000" stroke-width="2" stroke-miterlimit="10" x1="350.7" y1="209" x2="350.7" y2="291"/>
    <polygon points="342.5 284.2 343.9 282.8 350.7 290.1 357.4 282.8 358.8 284.2 350.7 293 "/>
  </g>
  <g id="GM2">
    <path fill="none" stroke="#87C94E" stroke-width="3" d="M333.9 48.3c0 2.8 2.2 5 5 5h23.6c2.8 0 5-2.2 5-5v-13c0-2.8-2.2-5-5-5h-23.6c-2.8 0-5 2.2-5 5V48.3z"/>
    <path fill="#FFFFFF" d="M333.9 48.3c0 2.8 2.2 5 5 5h23.6c2.8 0 5-2.2 5-5v-13c0-2.8-2.2-5-5-5h-23.6c-2.8 0-5 2.2-5 5V48.3z"/>
    <text transform="matrix(1 0 0 1 338.8862 45.3335)" font-family="'MyriadPro-Regular'" font-size="12">
      GM2
    </text>
  </g>
  <g id="GM3">
    <path fill="none" stroke="#9092BA" stroke-width="3" d="M334.6 150.6c0 2.8 2.2 5 5 5h23.6c2.8 0 5-2.2 5-5v-13c0-2.8-2.2-5-5-5h-23.6c-2.8 0-5 2.2-5 5V150.6z"/>
    <path fill="#FFFFFF" d="M334.6 150.6c0 2.8 2.2 5 5 5h23.6c2.8 0 5-2.2 5-5v-13c0-2.8-2.2-5-5-5h-23.6c-2.8 0-5 2.2-5 5V150.6z"/>
    <text transform="matrix(1 0 0 1 339.5527 147.5557)" font-family="'MyriadPro-Regular'" font-size="12">
      GM3
    </text>
  </g>
  <g id="Glucocerebroside">
    <path fill="none" stroke="#9092BA" stroke-width="3" d="M302.2 196.2c0 2.8 2.2 5 5 5h88.2c2.8 0 5-2.2 5-5v-13c0-2.8-2.2-5-5-5h-88.2c-2.8 0-5 2.2-5 5V196.2z"/>
    <path fill="#FFFFFF" d="M302.2 196.2c0 2.8 2.2 5 5 5h88.2c2.8 0 5-2.2 5-5v-13c0-2.8-2.2-5-5-5h-88.2c-2.8 0-5 2.2-5 5V196.2z"/>
    <text transform="matrix(1 0 0 1 307.249 193.2002)" font-family="'MyriadPro-Regular'" font-size="12">
      Glucocerebroside
    </text>
  </g>
  <g id="Ceramide">
    <path fill="none" stroke="#C24F4D" stroke-width="3" d="M322.2 319c0 2.8 2.2 5 5 5h48.3c2.8 0 5-2.2 5-5v-13c0-2.8-2.2-5-5-5h-48.3c-2.8 0-5 2.2-5 5V319z"/>
    <path fill="#FFFFFF" d="M322.2 319c0 2.8 2.2 5 5 5h48.3c2.8 0 5-2.2 5-5v-13c0-2.8-2.2-5-5-5h-48.3c-2.8 0-5 2.2-5 5V319z"/>
    <text transform="matrix(1 0 0 1 327.1929 316)" font-family="'MyriadPro-Regular'" font-size="12">
      Ceramide
    </text>
  </g>
  <g id="Ceramide_x0D_trihexoside">
    <path fill="none" stroke="#87C94E" stroke-width="3" d="M573.7 203.4c0 2.8 2.2 5 5 5h55.9c2.8 0 5-2.2 5-5V176c0-2.8-2.2-5-5-5h-55.9c-2.8 0-5 2.2-5 5V203.4z"/>
    <path fill="#FFFFFF" d="M573.7 203.4c0 2.8 2.2 5 5 5h55.9c2.8 0 5-2.2 5-5V176c0-2.8-2.2-5-5-5h-55.9c-2.8 0-5 2.2-5 5V203.4z"/>
    <text transform="matrix(1 0 0 1 582.5264 186)">
      <tspan x="0" y="0" font-family="'MyriadPro-Regular'" font-size="12">
        Ceramide
      </tspan>
      <tspan x="-3.8" y="14.4" font-family="'MyriadPro-Regular'" font-size="12">
        trihexoside
      </tspan>
    </text>
  </g>
  <g id="Sphingomyelin">
    <path fill="none" stroke="#87C94E" stroke-width="3" d="M563.6 319c0 2.8 2.2 5 5 5h76.1c2.8 0 5-2.2 5-5v-13c0-2.8-2.2-5-5-5h-76.1c-2.8 0-5 2.2-5 5V319z"/>
    <path fill="#FFFFFF" d="M563.6 319c0 2.8 2.2 5 5 5h76.1c2.8 0 5-2.2 5-5v-13c0-2.8-2.2-5-5-5h-76.1c-2.8 0-5 2.2-5 5V319z"/>
    <text transform="matrix(1 0 0 1 568.5957 316)" font-family="'MyriadPro-Regular'" font-size="12">
      Sphingomyelin
    </text>
  </g>
  <g id="Sulfatides">
    <path fill="none" stroke="#87C94E" stroke-width="3" d="M61.9 216.3c0 2.8 2.2 5 5 5h49c2.8 0 5-2.2 5-5v-13c0-2.8-2.2-5-5-5h-49c-2.8 0-5 2.2-5 5V216.3z"/>
    <path fill="#FFFFFF" d="M61.9 216.3c0 2.8 2.2 5 5 5h49c2.8 0 5-2.2 5-5v-13c0-2.8-2.2-5-5-5h-49c-2.8 0-5 2.2-5 5V216.3z"/>
    <text transform="matrix(1 0 0 1 66.8511 213.3335)" font-family="'MyriadPro-Regular'" font-size="12">
      Sulfatides
    </text>
  </g>
  <g id="Galactocerebroside">
    <path fill="none" stroke="#9092BA" stroke-width="3" d="M37.8 319c0 2.8 2.2 5 5 5h97.1c2.8 0 5-2.2 5-5v-13c0-2.8-2.2-5-5-5H42.8c-2.8 0-5 2.2-5 5V319z"/>
    <path fill="#FFFFFF" d="M37.8 319c0 2.8 2.2 5 5 5h97.1c2.8 0 5-2.2 5-5v-13c0-2.8-2.2-5-5-5H42.8c-2.8 0-5 2.2-5 5V319z"/>
    <text transform="matrix(1 0 0 1 42.7852 316)" font-family="'MyriadPro-Regular'" font-size="12">
      Galactocerebroside
    </text>
  </g>
  <g id="Hexosaminidase_A">
    <path fill="none" stroke="#BC9546" stroke-width="3" d="M300.3 93c0 2.8 2.2 5 5 5h92c2.8 0 5-2.2 5-5V80c0-2.8-2.2-5-5-5h-92c-2.8 0-5 2.2-5 5V93z"/>
    <path fill="#FFFFFF" d="M300.3 93c0 2.8 2.2 5 5 5h92c2.8 0 5-2.2 5-5V80c0-2.8-2.2-5-5-5h-92c-2.8 0-5 2.2-5 5V93z"/>
    <text transform="matrix(1 0 0 1 305.3291 90)" font-family="'MyriadPro-Regular'" font-size="12">
      Hexosaminidase A
    </text>
  </g>
  <g id="α-galactosidase_A">
    <path fill="none" stroke="#BC9546" stroke-width="3" d="M434.6 196.2c0 2.8 2.2 5 5 5h88.1c2.8 0 5-2.2 5-5v-13c0-2.8-2.2-5-5-5h-88.1c-2.8 0-5 2.2-5 5V196.2z"/>
    <path fill="#FFFFFF" d="M434.6 196.2c0 2.8 2.2 5 5 5h88.1c2.8 0 5-2.2 5-5v-13c0-2.8-2.2-5-5-5h-88.1c-2.8 0-5 2.2-5 5V196.2z"/>
    <text transform="matrix(1 0 0 1 439.6055 193.2002)" font-family="'MyriadPro-Regular'" font-size="12">
      α-galactosidase A
    </text>
  </g>
  <g id="Sphingomyelinase">
    <path fill="none" stroke="#BC9546" stroke-width="3" d="M432.3 319c0 2.8 2.2 5 5 5H530c2.8 0 5-2.2 5-5v-13c0-2.8-2.2-5-5-5h-92.7c-2.8 0-5 2.2-5 5V319z"/>
    <path fill="#FFFFFF" d="M432.3 319c0 2.8 2.2 5 5 5H530c2.8 0 5-2.2 5-5v-13c0-2.8-2.2-5-5-5h-92.7c-2.8 0-5 2.2-5 5V319z"/>
    <text transform="matrix(1 0 0 1 437.3145 316)" font-family="'MyriadPro-Regular'" font-size="12">
      Sphingomyelinase
    </text>
  </g>
  <g id="Galactocerebrosidase">
    <path fill="none" stroke="#BC9546" stroke-width="3" d="M173.2 319c0 2.8 2.2 5 5 5h107.6c2.8 0 5-2.2 5-5v-13c0-2.8-2.2-5-5-5H178.2c-2.8 0-5 2.2-5 5V319z"/>
    <path fill="#FFFFFF" d="M173.2 319c0 2.8 2.2 5 5 5h107.6c2.8 0 5-2.2 5-5v-13c0-2.8-2.2-5-5-5H178.2c-2.8 0-5 2.2-5 5V319z"/>
    <text transform="matrix(1 0 0 1 178.1841 316)" font-family="'MyriadPro-Regular'" font-size="12">
      Galactocerebrosidase
    </text>
  </g>
  <g id="Arylsulfatase_A">
    <path fill="none" stroke="#BC9546" stroke-width="3" d="M49.5 258.2c0 2.8 2.2 5 5 5h73.6c2.8 0 5-2.2 5-5v-13c0-2.8-2.2-5-5-5H54.5c-2.8 0-5 2.2-5 5V258.2z"/>
    <path fill="#FFFFFF" d="M49.5 258.2c0 2.8 2.2 5 5 5h73.6c2.8 0 5-2.2 5-5v-13c0-2.8-2.2-5-5-5H54.5c-2.8 0-5 2.2-5 5V258.2z"/>
    <text transform="matrix(1 0 0 1 54.5093 255.2002)" font-family="'MyriadPro-Regular'" font-size="12">
      Arylsulfatase A
    </text>
  </g>
  <g id="Glucocerebrosidase_x0D__x28_β-glucosidase_x29_">
    <path fill="none" stroke="#BC9546" stroke-width="3" d="M297 265.7c0 2.8 2.2 5 5 5h98.7c2.8 0 5-2.2 5-5v-27.4c0-2.8-2.2-5-5-5H302c-2.8 0-5 2.2-5 5V265.7z"/>
    <path fill="#FFFFFF" d="M297 265.7c0 2.8 2.2 5 5 5h98.7c2.8 0 5-2.2 5-5v-27.4c0-2.8-2.2-5-5-5H302c-2.8 0-5 2.2-5 5V265.7z"/>
    <text transform="matrix(1 0 0 1 301.981 248.3335)">
      <tspan x="0" y="0" font-family="'MyriadPro-Regular'" font-size="12">
        Glucocerebrosidase
      </tspan>
      <tspan x="11.2" y="14.4" font-family="'MyriadPro-Regular'" font-size="12">
        (β-glucosidase)
      </tspan>
    </text>
  </g>
  <g id="Tay-Sachs">
    <path fill="none" stroke="#8AC1A0" stroke-width="3" d="M158.9 93c0 2.8 2.2 5 5 5h49.6c2.8 0 5-2.2 5-5V80c0-2.8-2.2-5-5-5h-49.6c-2.8 0-5 2.2-5 5V93z"/>
    <path fill="#FFFFFF" d="M158.9 93c0 2.8 2.2 5 5 5h49.6c2.8 0 5-2.2 5-5V80c0-2.8-2.2-5-5-5h-49.6c-2.8 0-5 2.2-5 5V93z"/>
    <text transform="matrix(1 0 0 1 163.8799 90)" font-family="'MyriadPro-Regular'" font-size="12">
      Tay-Sachs
    </text>
  </g>
  <g id="Metachromatic_x0D_leukodystrophy">
    <path fill="none" stroke="#8AC1A0" stroke-width="3" d="M187.8 265.7c0 2.8 2.2 5 5 5h78.5c2.8 0 5-2.2 5-5v-27.4c0-2.8-2.2-5-5-5h-78.5c-2.8 0-5 2.2-5 5V265.7z"/>
    <path fill="#FFFFFF" d="M187.8 265.7c0 2.8 2.2 5 5 5h78.5c2.8 0 5-2.2 5-5v-27.4c0-2.8-2.2-5-5-5h-78.5c-2.8 0-5 2.2-5 5V265.7z"/>
    <text transform="matrix(1 0 0 1 194.042 248.3335)">
      <tspan x="0" y="0" font-family="'MyriadPro-Regular'" font-size="12">
        Metachromatic
      </tspan>
      <tspan x="-1.3" y="14.4" font-family="'MyriadPro-Regular'" font-size="12">
        leukodystrophy
      </tspan>
    </text>
  </g>
  <g id="Krabbe">
    <path fill="none" stroke="#8AC1A0" stroke-width="3" d="M209.1 395c0 2.8 2.2 5 5 5h35.9c2.8 0 5-2.2 5-5v-13c0-2.8-2.2-5-5-5h-35.9c-2.8 0-5 2.2-5 5V395z"/>
    <path fill="#FFFFFF" d="M209.1 395c0 2.8 2.2 5 5 5h35.9c2.8 0 5-2.2 5-5v-13c0-2.8-2.2-5-5-5h-35.9c-2.8 0-5 2.2-5 5V395z"/>
    <text transform="matrix(1 0 0 1 214.0581 392)" font-family="'MyriadPro-Regular'" font-size="12">
      Krabbe
    </text>
  </g>
  <g id="Fabry">
    <path fill="none" stroke="#8AC1A0" stroke-width="3" d="M464.6 121c0 2.8 2.2 5 5 5h28c2.8 0 5-2.2 5-5v-13c0-2.8-2.2-5-5-5h-28c-2.8 0-5 2.2-5 5V121z"/>
    <path fill="#FFFFFF" d="M464.6 121c0 2.8 2.2 5 5 5h28c2.8 0 5-2.2 5-5v-13c0-2.8-2.2-5-5-5h-28c-2.8 0-5 2.2-5 5V121z"/>
    <text transform="matrix(1 0 0 1 469.6416 118)" font-family="'MyriadPro-Regular'" font-size="12">
      Fabry
    </text>
  </g>
  <g id="Niemann-Pick">
    <path fill="none" stroke="#8AC1A0" stroke-width="3" d="M443.8 395c0 2.8 2.2 5 5 5h69.8c2.8 0 5-2.2 5-5v-13c0-2.8-2.2-5-5-5h-69.8c-2.8 0-5 2.2-5 5V395z"/>
    <path fill="#FFFFFF" d="M443.8 395c0 2.8 2.2 5 5 5h69.8c2.8 0 5-2.2 5-5v-13c0-2.8-2.2-5-5-5h-69.8c-2.8 0-5 2.2-5 5V395z"/>
    <text transform="matrix(1 0 0 1 448.8037 392)" font-family="'MyriadPro-Regular'" font-size="12">
      Niemann-Pick
    </text>
  </g>
  <g id="Gaucher">
    <path fill="none" stroke="#8AC1A0" stroke-width="3" d="M457.6 258.2c0 2.8 2.2 5 5 5h42.1c2.8 0 5-2.2 5-5v-13c0-2.8-2.2-5-5-5h-42.1c-2.8 0-5 2.2-5 5V258.2z"/>
    <path fill="#FFFFFF" d="M457.6 258.2c0 2.8 2.2 5 5 5h42.1c2.8 0 5-2.2 5-5v-13c0-2.8-2.2-5-5-5h-42.1c-2.8 0-5 2.2-5 5V258.2z"/>
    <text transform="matrix(1 0 0 1 462.5977 255.2002)" font-family="'MyriadPro-Regular'" font-size="12">
      Gaucher
    </text>
  </g>
</svg>