<svg xmlns="http://www.w3.org/2000/svg" xmlns:xlink="http://www.w3.org/1999/xlink" version="1.1" x="0" y="0" viewBox="0 0 556 163.3" enable-background="new 0 0 556 163.3" xml:space="preserve">
  <g id="Static">
    <polyline fill="none" stroke="#005C8A" points="15.3 148.3 15.3 149.3 16.3 149.3 "/>
    <line fill="none" stroke="#005C8A" stroke-dasharray="2" x1="18.3" y1="149.3" x2="538" y2="149.3"/>
    <polyline fill="none" stroke="#005C8A" points="539 149.3 540 149.3 540 148.3 "/>
    <line fill="none" stroke="#005C8A" stroke-dasharray="1.99" x1="540" y1="146.3" x2="540" y2="19.8"/>
    <polyline fill="none" stroke="#005C8A" points="540 18.8 540 17.8 539 17.8 "/>
    <line fill="none" stroke="#005C8A" stroke-dasharray="2" x1="537" y1="17.8" x2="17.3" y2="17.8"/>
    <polyline fill="none" stroke="#005C8A" points="16.3 17.8 15.3 17.8 15.3 18.8 "/>
    <line fill="none" stroke="#005C8A" stroke-dasharray="1.99" x1="15.3" y1="20.8" x2="15.3" y2="147.3"/>
    <rect x="15.3" y="19.3" fill="none" width="524.7" height="130"/>
    <text transform="matrix(1 0 0 1 386.4106 27.8525)" font-family="'MyriadPro-Regular'" font-size="12">
      Liver, ovaries, seminal vesicles
    </text>
    <rect x="15.3" y="19.3" fill="none" width="524.7" height="130"/>
    <text transform="matrix(1 0 0 1 386.4106 27.8525)" fill="#005C8A" font-family="'MyriadPro-Regular'" font-size="12">
      Liver, ovaries, seminal vesicles
    </text>
    <polyline fill="none" stroke="#7F0018" points="22 141 22 142 23 142 "/>
    <line fill="none" stroke="#7F0018" stroke-dasharray="1.99" x1="25" y1="142" x2="298.7" y2="142"/>
    <polyline fill="none" stroke="#7F0018" points="299.7 142 300.7 142 300.7 141 "/>
    <line fill="none" stroke="#7F0018" stroke-dasharray="1.97" x1="300.7" y1="139" x2="300.7" y2="29.8"/>
    <polyline fill="none" stroke="#7F0018" points="300.7 28.8 300.7 27.8 299.7 27.8 "/>
    <line fill="none" stroke="#7F0018" stroke-dasharray="1.99" x1="297.7" y1="27.8" x2="24" y2="27.8"/>
    <polyline fill="none" stroke="#7F0018" points="23 27.8 22 27.8 22 28.8 "/>
    <line fill="none" stroke="#7F0018" stroke-dasharray="1.97" x1="22" y1="30.8" x2="22" y2="140"/>
    <rect x="22" y="29.3" fill="none" width="278.7" height="112.7"/>
    <text transform="matrix(1 0 0 1 26 37.8525)" font-family="'MyriadPro-Regular'" font-size="12">
      Schwann cells, retina, kidneys; lens (primarily)
    </text>
    <rect x="22" y="29.3" fill="none" width="278.7" height="112.7"/>
    <text transform="matrix(1 0 0 1 26 37.8525)" fill="#7F0018" font-family="'MyriadPro-Regular'" font-size="12">
      Schwann cells, retina, kidneys; lens (primarily)
    </text>
  </g>
  <g id="Layer_16">
    <line fill="none" stroke="#000000" stroke-width="2" stroke-miterlimit="10" x1="82" y1="66.7" x2="229" y2="66.7"/>
    <polygon points="223.7 72.8 222.7 71.7 228.1 66.7 222.7 61.6 223.7 60.5 230.3 66.7 "/>
  </g>
  <g id="Layer_15">
    <line fill="none" stroke="#000000" stroke-width="2" stroke-miterlimit="10" x1="288" y1="66.7" x2="470" y2="66.7"/>
    <polygon points="465.4 72.8 464.4 71.7 469.8 66.7 464.4 61.6 465.4 60.5 472 66.7 "/>
  </g>
  <g id="Layer_14">
    <path fill="none" stroke="#000000" stroke-width="2" stroke-miterlimit="10" d="M203.9 97.1c-1.6-17.1-22.4-30.7-47.8-30.7 -26.5 0-47.9 14.7-47.9 32.9"/>
    <polygon points="210.7 89.3 209 88.1 203.5 96.4 195.8 90.3 194.5 91.9 204 99.3 "/>
  </g>
  <g id="Layer_13">
    <path fill="none" stroke="#000000" stroke-width="2" stroke-miterlimit="10" d="M421.9 97.1c-1.3-17.1-17.4-30.7-42.8-30.7 -26.5 0-40.4 14.7-40.4 32.9"/>
    <polygon points="429 89.5 427.3 88.3 421.6 96.3 414 90 412.8 91.6 422 99.3 "/>
  </g>
  <g id="Glucose">
    <path fill="none" stroke="#87C94E" stroke-width="3" d="M28 73c0 2.8 2.2 5 5 5H73c2.8 0 5-2.2 5-5V60c0-2.8-2.2-5-5-5H33c-2.8 0-5 2.2-5 5V73z"/>
    <path fill="#FFFFFF" d="M28 73c0 2.8 2.2 5 5 5H73c2.8 0 5-2.2 5-5V60c0-2.8-2.2-5-5-5H33c-2.8 0-5 2.2-5 5V73z"/>
    <text transform="matrix(1 0 0 1 33.0376 70.0005)" font-family="'MyriadPro-Regular'" font-size="12">
      Glucose
    </text>
  </g>
  <g id="Aldose_reductase">
    <path fill="none" stroke="#BC9546" stroke-width="3" d="M106.1 73c0 2.8 2.2 5 5 5h86.1c2.8 0 5-2.2 5-5V60c0-2.8-2.2-5-5-5h-86.1c-2.8 0-5 2.2-5 5V73z"/>
    <path fill="#FFFFFF" d="M106.1 73c0 2.8 2.2 5 5 5h86.1c2.8 0 5-2.2 5-5V60c0-2.8-2.2-5-5-5h-86.1c-2.8 0-5 2.2-5 5V73z"/>
    <text transform="matrix(1 0 0 1 111.0571 70.0005)" font-family="'MyriadPro-Regular'" font-size="12">
      Aldose reductase
    </text>
  </g>
  <g id="NADPH">
    <path fill="none" stroke="#AC57B3" stroke-width="3" d="M84.8 124.3c0 2.8 2.2 5 5 5h37.4c2.8 0 5-2.2 5-5v-13c0-2.8-2.2-5-5-5H89.8c-2.8 0-5 2.2-5 5V124.3z"/>
    <path fill="#FFFFFF" d="M84.8 124.3c0 2.8 2.2 5 5 5h37.4c2.8 0 5-2.2 5-5v-13c0-2.8-2.2-5-5-5H89.8c-2.8 0-5 2.2-5 5V124.3z"/>
    <text transform="matrix(1 0 0 1 89.7798 121.251)" font-family="'MyriadPro-Regular'" font-size="12">
      NADPH
    </text>
  </g>
  <g id="Sorbitol">
    <path fill="none" stroke="#9092BA" stroke-width="3" d="M234.1 73c0 2.8 2.2 5 5 5h39.5c2.8 0 5-2.2 5-5V60c0-2.8-2.2-5-5-5h-39.5c-2.8 0-5 2.2-5 5V73z"/>
    <path fill="#FFFFFF" d="M234.1 73c0 2.8 2.2 5 5 5h39.5c2.8 0 5-2.2 5-5V60c0-2.8-2.2-5-5-5h-39.5c-2.8 0-5 2.2-5 5V73z"/>
    <text transform="matrix(1 0 0 1 239.105 70.0005)" font-family="'MyriadPro-Regular'" font-size="12">
      Sorbitol
    </text>
  </g>
  <g id="Sorbitol_dehydrogenase">
    <path fill="none" stroke="#BC9546" stroke-width="3" d="M316.2 73c0 2.8 2.2 5 5 5h120.3c2.8 0 5-2.2 5-5V60c0-2.8-2.2-5-5-5H321.2c-2.8 0-5 2.2-5 5V73z"/>
    <path fill="#FFFFFF" d="M316.2 73c0 2.8 2.2 5 5 5h120.3c2.8 0 5-2.2 5-5V60c0-2.8-2.2-5-5-5H321.2c-2.8 0-5 2.2-5 5V73z"/>
    <text transform="matrix(1 0 0 1 321.1841 70.0005)" font-family="'MyriadPro-Regular'" font-size="12">
      Sorbitol dehydrogenase
    </text>
  </g>
  <g id="NAD_x2B_">
    <path fill="none" stroke="#AC57B3" stroke-width="3" d="M319.5 124.3c0 2.8 2.2 5 5 5h30.4c2.8 0 5-2.2 5-5v-13c0-2.8-2.2-5-5-5h-30.4c-2.8 0-5 2.2-5 5V124.3z"/>
    <path fill="#FFFFFF" d="M319.5 124.3c0 2.8 2.2 5 5 5h30.4c2.8 0 5-2.2 5-5v-13c0-2.8-2.2-5-5-5h-30.4c-2.8 0-5 2.2-5 5V124.3z"/>
    <text transform="matrix(1 0 0 1 324.4741 121.251)" font-family="'MyriadPro-Regular'" font-size="12">
      NAD+
    </text>
  </g>
  <g id="Fructose">
    <path fill="none" stroke="#C24F4D" stroke-width="3" d="M477.1 73c0 2.8 2.2 5 5 5h43.1c2.8 0 5-2.2 5-5V60c0-2.8-2.2-5-5-5h-43.1c-2.8 0-5 2.2-5 5V73z"/>
    <path fill="#FFFFFF" d="M477.1 73c0 2.8 2.2 5 5 5h43.1c2.8 0 5-2.2 5-5V60c0-2.8-2.2-5-5-5h-43.1c-2.8 0-5 2.2-5 5V73z"/>
    <text transform="matrix(1 0 0 1 482.1265 70.0005)" font-family="'MyriadPro-Regular'" font-size="12">
      Fructose
    </text>
  </g>
  <g id="NADP_x2B_">
    <path fill="none" stroke="#AC57B3" stroke-width="3" d="M180.4 124.3c0 2.8 2.2 5 5 5h36.8c2.8 0 5-2.2 5-5v-13c0-2.8-2.2-5-5-5h-36.8c-2.8 0-5 2.2-5 5V124.3z"/>
    <path fill="#FFFFFF" d="M180.4 124.3c0 2.8 2.2 5 5 5h36.8c2.8 0 5-2.2 5-5v-13c0-2.8-2.2-5-5-5h-36.8c-2.8 0-5 2.2-5 5V124.3z"/>
    <text transform="matrix(1 0 0 1 185.4492 121.251)" font-family="'MyriadPro-Regular'" font-size="12">
      NADP+
    </text>
  </g>
  <g id="NADH">
    <path fill="none" stroke="#AC57B3" stroke-width="3" d="M402.5 124.3c0 2.8 2.2 5 5 5h31.1c2.8 0 5-2.2 5-5v-13c0-2.8-2.2-5-5-5h-31.1c-2.8 0-5 2.2-5 5V124.3z"/>
    <path fill="#FFFFFF" d="M402.5 124.3c0 2.8 2.2 5 5 5h31.1c2.8 0 5-2.2 5-5v-13c0-2.8-2.2-5-5-5h-31.1c-2.8 0-5 2.2-5 5V124.3z"/>
    <text transform="matrix(1 0 0 1 407.4722 121.251)" font-family="'MyriadPro-Regular'" font-size="12">
      NADH
    </text>
  </g>
</svg>